/* XPM */
static char *bc28c4bd8cff4fb8b0f08fbfd97cc554xwL7J778u6GwBTQD[] = {
/* columns rows colors chars-per-pixel */
"64 64 216 2 ",
"   c #DE0015",
".  c #DE011D",
"X  c #E30117",
"o  c #E90017",
"O  c #E3011D",
"+  c #EA011E",
"@  c #DF0424",
"#  c #DF0028",
"$  c #DE0B2B",
"%  c #DF182F",
"&  c #E60224",
"*  c #EA0125",
"=  c #E40B26",
"-  c #EE0C26",
";  c #E6052A",
":  c #EA042A",
">  c #E50B2C",
",  c #EA0B2D",
"<  c #F1032C",
"1  c #F30425",
"2  c #E5112D",
"3  c #EA112F",
"4  c #E51A2E",
"5  c #F3142D",
"6  c #F2192E",
"7  c #E60731",
"8  c #EC0532",
"9  c #E60E33",
"0  c #EA0D33",
"q  c #E60D38",
"w  c #EC0D38",
"e  c #F10530",
"r  c #F10C34",
"t  c #F10C39",
"y  c #E51133",
"u  c #EA1133",
"i  c #E71339",
"p  c #EB133A",
"a  c #E51D3C",
"s  c #EA1C3D",
"d  c #E31E32",
"f  c #F11331",
"g  c #F31439",
"h  c #DF213D",
"j  c #E4213D",
"k  c #E9223F",
"l  c #EF1641",
"z  c #E61D41",
"x  c #EC1D44",
"c  c #EE1F4B",
"v  c #F11E45",
"b  c #F21F48",
"n  c #DD2541",
"m  c #E52244",
"M  c #EA2544",
"N  c #EA2B46",
"B  c #E5244B",
"V  c #EC254A",
"C  c #E72A4D",
"Z  c #ED2A4B",
"A  c #F02345",
"S  c #F22A43",
"D  c #F2224C",
"F  c #F22B4A",
"G  c #E5334E",
"H  c #ED314E",
"J  c #E6384F",
"K  c #EF2D52",
"L  c #F02550",
"P  c #F02C54",
"I  c #E63451",
"U  c #EC3151",
"Y  c #ED3C53",
"T  c #EB3D58",
"R  c #F13E5C",
"E  c #E74157",
"W  c #EB405A",
"Q  c #E94256",
"!  c #F04356",
"~  c #EE4462",
"^  c #E74962",
"/  c #EE4C66",
"(  c #E74769",
")  c #ED4C69",
"_  c #E54465",
"`  c #F14463",
"'  c #F34A67",
"]  c #F24C69",
"[  c #F94467",
"{  c #EB5266",
"}  c #ED5369",
"|  c #EF5A6D",
" . c #F05167",
".. c #F2546B",
"X. c #F1596E",
"o. c #F44B72",
"O. c #EE5674",
"+. c #EE5D74",
"@. c #EE5E79",
"#. c #F05D70",
"$. c #F35B79",
"%. c #FA5679",
"&. c #EE6374",
"*. c #ED647B",
"=. c #ED6D7C",
"-. c #F36275",
";. c #F2647A",
":. c #F16B7D",
">. c #F86379",
",. c #F2717E",
"<. c #EF6E82",
"1. c #EC6B8A",
"2. c #F36D84",
"3. c #F96980",
"4. c #F56C8C",
"5. c #F86D8A",
"6. c #ED7888",
"7. c #EE7584",
"8. c #F27385",
"9. c #F97080",
"0. c #F3758A",
"q. c #F97C8B",
"w. c #F27B8E",
"e. c #F37D91",
"r. c #F17F98",
"t. c #FA7B90",
"y. c #EF8393",
"u. c #FE8096",
"i. c #F5869F",
"p. c #F88298",
"a. c #F68D9B",
"s. c #F28996",
"d. c #F4919E",
"f. c #FA939E",
"g. c #F483A1",
"h. c #F986A5",
"j. c #F18BA0",
"k. c #EC9FAF",
"l. c #F796A1",
"z. c #F897A3",
"x. c #F399A3",
"c. c #F897A8",
"v. c #F69CAB",
"b. c #F99BAD",
"n. c #F4A1AF",
"m. c #F9A2AE",
"M. c #EFA7B2",
"N. c #F2A3B2",
"B. c #FAA3B2",
"V. c #F6ABB7",
"C. c #FAABB6",
"Z. c #FCACBC",
"A. c #F7A8BC",
"S. c #EFBCBB",
"D. c #F3B5BD",
"F. c #F7B3B9",
"G. c #EFB9C7",
"H. c #FCB5C2",
"J. c #F6BBC4",
"K. c #FABBC4",
"L. c #F5BEC9",
"P. c #F9BCCA",
"I. c #FBC3CE",
"U. c #FCC5C8",
"Y. c #F6CED1",
"T. c #F9CDD4",
"R. c #F9D4D5",
"E. c #F9D9D6",
"W. c #FAD6DD",
"Q. c #FBD8DE",
"!. c #FEE2DF",
"~. c #F7DEE1",
"^. c #FBDDE2",
"/. c #FEDEE8",
"(. c #FCD6E1",
"). c #FAE2E5",
"_. c #F4EAE6",
"`. c #FCEBE6",
"'. c #FEE2E9",
"]. c #FEEBEC",
"[. c #F5E6E1",
"{. c #FDF1ED",
"}. c #FCF8EF",
"|. c #F7F3EA",
" X c #FCECF2",
".X c #F7F2F1",
"XX c #FDF4F4",
"oX c #F6FEF6",
"OX c #FEFFF3",
"+X c #F8FEF6",
"@X c #FDFCF5",
"#X c #FDF7FB",
"$X c #FFF6F9",
"%X c #FFF4F9",
"&X c #F7FFFE",
"*X c #F6FEFC",
"=X c #FFFAFB",
"-X c #FAFFF9",
";X c #FEFDFB",
":X c #FFFCFA",
">X c #FFFFFB",
",X c #FCFFFA",
"<X c #FFFBFF",
"1X c #FEF8FD",
"2X c #F8FFFF",
"3X c #FBFFFF",
"4X c #F9FEFD",
"5X c #FFFCFF",
"6X c #FFFDFF",
"7X c #FFFDFE",
"8X c #FCFFFF",
"9X c #FFFEFF",
"0X c #FEFFFF",
"qX c white",
"wX c #FEFDFD",
"eX c #FEFEFD",
/* pixels */
"5X5X,X5X&X5X5X5X5X5X5X5X5X5X5X5X5X5X5X5X5X5X5X5X5X5X5X5X5X5X5X5X5X5X5X5X5X5X5X5X5X5X5X5X5X5X5X5X5X5X5X5X5X5X5X5X5X3X5X&X5X1X3X5X",
"OX5X&X5X+X,X<X5X,X,X5X,X,X,X5X,X,X,X,X5X,X,X,X,X,X5X,X,X5X,X,X,X5X,X5X,X,X,X5X,X,X,X,X5X,X,X,X,X,X5X,X,X5X,X,X,X-X5X1X+X5X3X5XOX",
"5X5X3X,X5X&X>X5X5X5X5X5X5X5X5X5X5X5X5X5X5X5X5X5X5X5X5X5X5X5X5X5X5X5X5X5X5X5X5X5X5X5X5X5X5X5X5X5X5X5X5X5X5X5X5X5X5X,X3X3X,X&X3X1X",
"5X3X<X+X5Xf.Y ! T T Q T T T T Q T T T Q T T W T T W T T T T Q T T Q T T T T T Q T T Q W T T W T T W T T T T Q T ! G f.3X+X5X-X5X",
"3X+XXX5Xq.f g.x.f.x.f.x.x.z.z.z.x.z.f.x.f.x.f.l.x.f.x.z.f.x.x.f.f.x.f.x.x.z.z.z.l.l.l.z.z.f.x.f.x.f.x.z.f.x.x.f.x.h.u q.5XXX>X3X",
"<X3X,XW.a {. X^.^.Q.^.Q.Q.Q.Q.Q.Q.Q.^.Q.^.Q.^.Q.^.Q.Q.Q.Q.Q.^.Q.^.Q.^.Q.Q.Q.Q.Q.^.Q.Q.Q.Q.^.Q.Q.^.Q.Q.Q.Q.Q.^.Q.^.].{.a W.,X5X5X",
"5X5X<X1.z.k.  O & & & & & & = * & & & & & & & : * & & & * & & & & & & & & & = * & & & & & * & & * & & & * & & & &   v.l.1.<X1X,X",
"-X5X+X) H.6 , w u 0 0 0 u 0 0 u 0 0 0 9 0 u u 0 u u 0 9 u u u 0 u 0 0 0 u 0 0 u u 0 0 y u u u 0 u u 0 9 u u u 0 0 0 5 J./ >X5X-X",
",X5X].{ m.; y r 0 > 0 u > 0 u 0 y , u 0 q y 0 > r 9 y , w y 0 0 > r > 3 > y 0 > 0 2 > p > y 7 3 u 0 u > 0 u > u w 2 : B.{ {.-X<X",
"5X5X).' c.: u ; , , , : , ; , ; , : : ; u ; : , ; > > r 7 y > , = 0 ; e r 0 e , , , : 0 0 7 7 , : ; , ; , : , , , u ; b.) ).5X5X",
"-X5X'.' v.: : z M M M M M M M M M M V 4 - V Z m V V s , r 0 ; x N B C s > > k N V V V 0 - v V k M M M M M M M M z , * b.] ).5X3X",
"5X5X'.^ c.: = X.<X<X#X#X#X1X1X1X#XXX5X%.x <XXX<XXX5X0.O > u w Y.,X.X5X9.& 7 H.5X X,X].N O M.5X.X1X<X1X#X#X#X1X5X..; 1 b.^ ).5X<X",
"5X3X^.^ v.: # =.5X5X5X5X,X5X5X5X,X-X<X=.. !.-X5X5X5XF.@ g : Z 5X5X5X5XE : ; D.5X5X+XXXN + V.5X5X5X,X5X5X5X,X5X5X=.& : v.^ '.-X5X",
"3X3X'. .v.; : +.5X,X,X,X,X5X,X,X5X+X3X,.X F.5X,X,X5XR.r 7 & } -X5X5X'.s 7 ; I.5X+X5X1XZ & A.3X,X>X>X,X>X>X>X>X,X@.: * n...'.3X3X",
"-X5X^.' c.; e ;.5X5X5X5X5X5X5X5X5X-X5X<.o 8.5X1X>X5X>XK > & a.,X=X+XK.; u : D.>X#X+X.XM & C.+X1X5X5X5X5X5X5X5X5X;.e & x.' /.-X-X",
"5X5X].W v., & &.5X,X5X5X5X5X5X5X5X-X5X3.+ E 5X,X3X<X,XO.: , K.5X1X,Xi.X u , G.5X1X5XXXF O B.,X5X5X5X5X5X5X5X3X5X@.: & n./ '.5X5X",
"5X5X).' v.: & ;.5X>X-X5X5X+X3X5X5X=X5X3.. l [.5X,X<X<Xa.+ a ].1X<X,X/ & p & P.,X=X<XoXS O A.3X<X5X,X*X,X,X5X<X3X*.& : c./ /.5X5X",
"5X5X).' v.; & ;.5X+X<X5X5X5X5X5X+X>X5X:.* : D.5X,X1X3XJ.O W <X<X5X].N : p & P.5X1X4XXXS + C.1X,X5X-X3X3X-X5XOX>X$., ; c.{ '.3X3X",
"5X5X[.' c.: ; ;.5X-X5X5X,X}.>XoXoX=X5X*.O ; w.5X1X5X&X`.= 4.,X4X5XY.: 0 u & J.5X=X-X=XN O V.5X+X,X1X5X3X5X&X=X,X#.: & v.{ ).5X5X",
"5X5X).' v.: & ;.5X+X5X&X3X,X5X3X5X,X3X2.& & / 5X,X5X5X5XM c.-X+X5Xx.: u 7 : L.5X1X5XXXF : A.*X5X3X5X<X5X5X5X5X5X2.& : v.' ).5X5X",
"5X5X).' v.: & ;.5X>X<X5XI.m.Z.C.V.B.H./ ; r s ].,X5X,X5X&.I.-X<X3X-.: y , * J.5X,X,XXXM & B.>X].XX3X5X>X-XXX].&X..; : v./ '.5X5X",
"3X3X).' v.; & ;.,X>X,X=XX.+ O . & : ; = > 2 ; K.5X3X,X5XJ. X-X<X,XN ; 0 y & J.5X1X3X=XN * s M 0 w.3X1X,X1X_ p M m , & v./ ).5X3X",
"5X5X).' c.: ; ;.5X>X1X5X+.; u u > f > 2 u u & s.,X5X5X3X%X5X+X5X(.2 > 0 u ; J.5X<X5X{.M = > , & >.3X+X,X,XZ 1 & 7 3 & c.) ).5X-X",
"5X5X).' v.: & ;.5X,X4X-X-.: r 0 0 9 9 r w w & } 5X,X5X5X5X-X-X5XA.O > w 0 & K.3X1X5XXXL = 0 y & 8.5X1X1X5XU > u t 2 : b./ '.5X5X",
"5X5X[.' v.: & ;.5X5X<X-X;.: u 0 , y , 0 w 0 , s XX<X5X5X5X,X<X5X,.& p 0 0 & K.5X5X5XXXM ; u u & 8.5X>X5X5XU ; 0 0 0 * v.' '.-X5X",
"3X5X).' v.: & ;.,XXX-X>X} O = O : ; 0 > w > 9 > Y.<X3X3X5X5X5X,XW ; u 0 9 & P.5X<X,X#XM ; u 0 & 2.,X=X5X5XU = 0 > u & v.' '.,X5X",
"5X5X).' v.; ; ;.3X5X5X,Xp.~ ' ' ] ^ u > 9 y 0 & x.5X-X5X5X5X5X_.i , 0 > u * P.5X<X5X#XM , u u & 2.5X=X,X5XU = u 0 u : v./ /.5X5X",
"5X5X).' c.: & ;.,X5X1X3X3X-X,X5X>X>Xn e u , r : $.5X-X5X5X-X5XS.: 0 0 0 u & P.5X<X,X#XM ; 0 u & 8.5X>X5X5XU * 0 0 u & c./ '.3X,X",
"5X5X).' v.; & ;.>X,X3X5X5X-X5X3X5X{.V : 9 > y , Z =X5X5X5X-X5Xu.: y , 0 3 & J.5X3X,XXXM : u 0 & 2.5X,X5X5XH = 0 > u : m.' /.-X5X",
"5X5X).' c., & ;.,X<X5X5X1X,X-X,X3XXXz : g > y y 7 R.5X<X5X5X5X~ : > , 0 0 ; J.5X5X5X%XM ; 0 y & 2.5X>X5X5XU = 0 0 0 & x./ '.5X5X",
"3X5X).' v.: & ;.5X5X4X5X,X5X-X5X5XXXM , 0 , e u + M.4X+X5X3X@XG : 2 0 u , ; J.5X5X,X#XM ; u y + 8.5X=X,X5XH : 0 0 u & c./ /.-X5X",
",X5X).' v.; & ;.,X,X5X5X5X5X3X5X5X.XM : 7 u 0 u + p.<X5X5X3X,X' : u > y r & P.5X<X5X%XM , u u & 2.5X>X5X5XH : 0 > u : v./ '.3X5X",
"3X5X).' c.: & ;.5X1X3X3X5X5X3X5X-X.Xk : p , q u * J.3X5X,X<X5Xg.& 0 0 , 0 ; J.<X5X,X#XM ; u u O 2.5X,X5X5XH = 0 0 u : c./ ^.,X5X",
"5X5X).' v.: & ;.5X@X,X5X,X>X,X,X<X%XA ; p , w ; p !.3X-X,X,X3XK.; 0 0 3 u : J.5X5X5XXXM , 0 0 & 2.5X>X5X5XU = 0 0 0 : v./ '.5X5X",
"5X5X).' v.; ; ;.5XOX,X<X5X5X5X5X5X#Xv = > u y : R >X5X3X,X3X5X|.y 0 0 3 9 : J.5X5X,XXXN ; 0 u & 8.5X=X5X5XU = 0 > u : x./ '.-X5X",
"3X5X).' v.: & ;.5X+X1X3X=X@X,XXX>X{.k , r , y : 2.+X<X5X,X5X<X-XW 1 0 > > ; P.5X<X5X%XM ; p u & 2.,X>X5X5XH * 0 0 u : c./ ).5X5X",
"5X5X[.' v.: & ;.5X,X3X,X8.M Z G U B u 0 w 7 y & B.+X<X5X5X5X5X-X0.& u u > & K.5X5X5XXXM > 0 y + 2.5X>X,X5XH = 0 0 u : m.' /.-X5X",
"5X5X).' v.: & ;.5X1X+X,XO.& , ; ; , > > w 0 r > W.5X5X5X&X5X-X5XV.; y u 0 ; P.5X<X,X#XM : 0 u & 8.5X>X5X5XU ; 0 > > : x./ '.5X5X",
"5X5X).' v.; & ;.5X1X1X5X$., r w > 0 0 0 9 0 ; Z XX,X5X3X5X5X-X5X^.u , 0 9 & P.5X4X5X#XM ; u u & 2.5X,X5X5XU ; 0 0 u : c./ /.-X5X",
"5X5X).' c.: & ;.,X>X<X,XO.= y 9 0 0 > 3 0 y ; X.5X5X,X5X5X5X5X5X5XF 8 0 > : U.5X<X5X%XM , 0 0 & 2.5X=X5X5XH = 0 0 0 : x./ '.3X5X",
"3X5X).' v.: & ;.,X,X5X+X+.< t y r w r ; q u & f.-X,X5XK.).5X=X-X+X2.& 0 u : K.3X+X5XXXM ; 0 u & 8.5X>X5X5XZ , 0 > u : c.' /.-X5X",
"5X5X).' v.; & ;.3X1X<X,X| & 0 = , > > 3 0 u & Y.5X=X3X6.J.5X>X<X5Xc.: u 9 : K.5X<X5X#XM , 0 y & 2.,X=X5X5XH ; 0 0 u * v./ '.,X5X",
"5X5X[.' v.: & ;.5X3X3X=X;.p x a a z v u > ; x ].5X5X3XG a.5X1X<X5XY.7 2 > : J.5X5X5X#XM > 0 u O 2.5X>X,X5XU = u 0 u * v./ /.5X5X",
"5X5X).' v.: & ;.5X.X<X3XXX`.].].`.].XX*.: ; [ *X+X<X#X3 -.5X,X3X5XOXD > u & L.5X5X5XXXM : 0 u & 8.5X>X5X5XU * 0 > u : v./ '.-X5X",
"5X5X).' v.; & ;.,X,X5X&X3X3X5X5X3X&X5X4.* 1 y.5X1X,XT.& Y ,X,X&X5X-XO.& f : L.<X3X,X%XM ; 0 u & 2.5X,X5X5XU = 0 > u : m./ /.-X5X",
"5X3X).' v.: & ;.3X5X<X5X,X,X3X5X5X<X5X*.O , D.<X1X3Xc.& y '.5X5X5X5Xj.O u & P.,X5X5X#XM ; u 0 & 2.5X>X5X5XU = 0 0 0 & x.' '.3X5X",
"5X5X).' c.: ; ;.5X,X-X5X,X,X3X,X-X,X1X=.: p _.<X1X5X&.: ; D.,X<X5X5XI.; 9 : P.>X,X,X#XM , u u & 8.5X=X5X5XU * 0 > u : c./ /.,X5X",
"3X5X).' v.: & ;.5X+X5X5X5X5X5X5X5X1X,X2.O R ,X5X,X<XI 8 ; y.,X<X-X5X].s q & P.>X<X5XXXM ; 0 u & 2.,X>X5X5XU = 0 0 u : v./ ).5X5X",
"5X3X).^ v.; ; *.<X<X5X5X5X5X5X5X5X>X>X,.X 8.5X-X3X/.u > ; { <X5X-X5X+XR & : K.5X1X5X#XV > y 0 O 2.3X,X3X&XH ; , 0 u : c./ /.,X,X",
"3X5X^.{ l.; 8 >.5X,X5X5X5X5X5X5X5X1X,X2.+ m.5X<X>XD.: g 7 M =X,X5X1X5Xt.& # U.,XoX3X].M : u t + =.<X=X<X5XI ; 0 0 u : v./ '.,X5X",
"3X5X'. .c.: & -.5X,X,X,X5X,X5X,X5X,X3X:.& E.5XXX,Xe.& 0 7 > E.-X1X5X-XH.; $ P.5X1X3XXXM , > y & 2.&XoX5X<XV 0 y 0 u : x./ '.5X5X",
"5X5X).W k.: & =.5X5X5X5X5X5X5X5X,X-X5X-.j OX3X,X5Xo.* 0 y * B.5X,XOX5X).0 1 S.5X<X5X-XB 7 y 0 : 4.<X3X3X<XG ; f > u : c./ '.,X5X",
"5X3X).! n.: ; X.<XXX%X#X1XXX#X#XXXXX<X%.~ <X X=X_.B = 0 y & >.,XXX|.%X<XT & K.<X.XXX].Z ; u y & 2.-X{.XX}.H : > 0 u : x./ /.,X5X",
"-X5X'.' v.: , z M x M M k M M M j M V u d M M m x 0 > 0 0 , u B c V v B % ; x M A v Z > 0 - , 0 p x V D m 0 0 > 0 0 & v./ '.-X5X",
"&X5X)./ c.: u : , : : , , , : < ; 0 8 > 9 : , , e , > 0 0 > ; , > ; , : 3 u > * - = : ; w 2 y 0 > : , : ; r > u 0 u & m.) '.3X5X",
",X5X].{ n.; y r 0 9 9 u 0 > u 0 y - 0 0 0 0 3 > 0 u 0 0 0 0 y 0 - u r > > w 0 y 9 u w u q , 0 , y u u > u 0 0 u 0 y : m.} ].-X5X",
"-X5X,X' J.f , u 9 9 0 0 y 0 0 9 0 9 y 0 9 u u y 0 0 y 9 0 0 9 9 i y 0 9 0 0 y 0 0 9 y 0 9 u u y u 0 0 9 9 0 0 9 0 0 5 K.) +X5X,X",
"-X5X<X1.l.N.X & * & + & : & * & * & * * * & * * & * & + & * & & & : & + & * * & * & * * * & * * & * & & * * & & & X N.z.1.5X>X5X",
"<X5X>XW.a |. X(.^.).Q.).).Q.Q.).~.^.~.!.Q.).Q.Q.^.).Q.).^.).^.!.Q.).Q.).Q.).^.^.~.^.~.!.Q.).Q.Q.Q.).).^.!.^.).^.^. X Xa W.>X5X<X",
"5X+XXX5Xq.0 h.d.a.a.f.a.a.a.f.a.a.a.a.d.d.a.d.a.a.a.a.a.a.a.a.d.a.a.d.a.d.a.a.a.a.a.a.d.d.a.d.a.a.a.a.a.a.a.a.f.l.r.0 t.,X}.-X3X",
"<X,X5X+X3Xl.Y W W W W W W W W W W W W W W W W W T W W W W W W W W W W W Q W W W W W W W W W W W W W W W W W W W W T f.3X-X5X,X<X",
",X3X&X,X5X&X,X5X5X5X5X5X5X5X5X5X5X5X5X5X5X5X5X5X5X5X5X5X5X5X5X5X5X5X5X5X5X5X5X5X5X5X5X5X5X5X5X5X5X5X5X5X5X5X5X5X5X,X3X5X,X3X5X5X",
"OX5X3X<X+X>X5X*X,X,X,X,X,X,X,X,X,X5X,X,X,X,X,X5X,X,X,X,X,X,X5X,X,X,X,X,X5X,X,X,X,X5X,X,X,X,X,X5X,X,X,X,X,X,X,X,X&X,X1X-X<X4X5XOX",
"5X3X5X5X3X<X+X5X5X5X5X5X5X5X5X5X5X5X5X5X5X5X5X5X5X5X5X5X5X5X5X5X5X5X5X5X5X5X5X5X5X5X5X5X5X5X5X5X5X5X5X5X5X5X5X5X5X5X,X3X5X1X3X3X"
};
