/* XPM */
static char *_7ce2156f664475c8bf3e7d67cc51bc78vnVJMjrk7rWHh54[] = {
/* columns rows colors chars-per-pixel */
"64 64 256 2 ",
"   c #BB7606",
".  c #B97816",
"X  c #AC750A",
"o  c #C37D08",
"O  c #C47C16",
"+  c #D37A0F",
"@  c #9E7E4F",
"#  c #BC8315",
"$  c #B58914",
"%  c #BD8624",
"&  c #BD9726",
"*  c #BE8F38",
"=  c #BA9B38",
"-  c #AC8D32",
";  c #CD840B",
":  c #CB8514",
">  c #C8871A",
",  c #D38B13",
"<  c #D48E1C",
"1  c #D58815",
"2  c #D8931C",
"3  c #CB8A16",
"4  c #E69717",
"5  c #D2A219",
"6  c #EFB009",
"7  c #F5B707",
"8  c #EAAB19",
"9  c #F1AE1D",
"0  c #F6A21C",
"q  c #ECB21B",
"w  c #EBB514",
"e  c #F3B31B",
"r  c #CC8B22",
"t  c #C68A27",
"y  c #D58C25",
"u  c #CB9626",
"i  c #D6952D",
"p  c #D69727",
"a  c #C68B34",
"s  c #CA973A",
"d  c #D59C35",
"f  c #D89A38",
"g  c #D78D32",
"h  c #E59D28",
"j  c #E49C35",
"k  c #D6A42B",
"l  c #DDB425",
"z  c #CBA437",
"x  c #DCA234",
"c  c #DCA33B",
"v  c #D7A73B",
"b  c #DFB43C",
"n  c #ECA324",
"m  c #EDAB23",
"M  c #EBAB2C",
"N  c #E8A52B",
"B  c #F3AC24",
"V  c #F2AD2D",
"C  c #F7AA27",
"Z  c #EEB122",
"A  c #EEB22B",
"S  c #EFBC22",
"D  c #F2B22C",
"F  c #F6B627",
"G  c #E2A434",
"H  c #EAA935",
"J  c #E3A53B",
"K  c #E4AC3B",
"L  c #EAAC3B",
"P  c #E6A836",
"I  c #F3AB33",
"U  c #F2AE3B",
"Y  c #FBAC34",
"T  c #ECB23D",
"R  c #EAB438",
"E  c #F3B434",
"W  c #F4B23C",
"Q  c #F8B736",
"!  c #FEC00B",
"~  c #FFC229",
"^  c #BC9C4A",
"/  c #B68F4B",
"(  c #B7A255",
")  c #BA9965",
"_  c #B08F66",
"`  c #BDA372",
"'  c #C99A47",
"]  c #D59D43",
"[  c #D99B44",
"{  c #C59C56",
"}  c #D79853",
"|  c #CDA548",
" . c #D4A342",
".. c #DCA343",
"X. c #DDAB44",
"o. c #DAA54A",
"O. c #DCAA4C",
"+. c #D4A649",
"@. c #D9B548",
"#. c #CAA357",
"$. c #D6A857",
"%. c #DCB258",
"&. c #CDB04C",
"*. c #E3AB42",
"=. c #ECAE42",
"-. c #E4AE4C",
";. c #EBAE4B",
":. c #E3A347",
">. c #F4AC48",
",. c #E2B243",
"<. c #ECB344",
"1. c #EDBB45",
"2. c #E4B34C",
"3. c #ECB44B",
"4. c #ECBA4C",
"5. c #E5BA49",
"6. c #F3B444",
"7. c #F4BC45",
"8. c #FABB45",
"9. c #F2B44C",
"0. c #F3BB4D",
"q. c #FCBC4C",
"w. c #F9B448",
"e. c #E4AC53",
"r. c #EBAD53",
"t. c #E5AE5A",
"y. c #EAA858",
"u. c #F2AE53",
"i. c #F4AE58",
"p. c #E4B453",
"a. c #ECB553",
"s. c #ECBA54",
"d. c #E4B35B",
"f. c #ECB55A",
"g. c #EDBB5B",
"h. c #E6BA57",
"j. c #F3B454",
"k. c #FCB353",
"l. c #F3BB54",
"z. c #FBBB55",
"x. c #F3B45B",
"c. c #F4BB5B",
"v. c #FBBB5A",
"b. c #FAB659",
"n. c #C29A61",
"m. c #D7AA66",
"M. c #DCB568",
"N. c #C8A776",
"B. c #D8B378",
"V. c #CDAA6F",
"C. c #ECBA61",
"Z. c #E7B365",
"A. c #F2BC63",
"S. c #F7B964",
"D. c #E4B675",
"F. c #E3A963",
"G. c #EBC34A",
"H. c #F8C447",
"J. c #ECCB5B",
"K. c #EAC656",
"L. c #FCC354",
"P. c #F2C15A",
"I. c #FCC45B",
"U. c #F4CB5E",
"Y. c #FECB5B",
"T. c #F5C655",
"R. c #F8D55A",
"E. c #FFE45F",
"W. c #D7C47C",
"Q. c #EBC764",
"!. c #FCCD62",
"~. c #F8C466",
"^. c #ECD76A",
"/. c #FCD363",
"(. c #F5DA64",
"). c #FDDC64",
"_. c #FED56B",
"`. c #F3DC6D",
"'. c #FCDC6C",
"]. c #F3D268",
"[. c #FCCE77",
"{. c #EBD778",
"}. c #F3DB73",
"|. c #FDDD73",
" X c #F5DD7C",
".X c #FDDC7A",
"XX c #F9D577",
"oX c #E0C671",
"OX c #FDE265",
"+X c #FEE26C",
"@X c #F5E173",
"#X c #FDE374",
"$X c #FEE975",
"%X c #FDE47B",
"&X c #F7E57B",
"*X c #DDC559",
"=X c #DBB68A",
"-X c #DAB887",
";X c #D5B893",
":X c #E5BA8A",
">X c #E0BA92",
",X c #DCC689",
"<X c #DDCC96",
"1X c #E6C88A",
"2X c #EAD886",
"3X c #F2DC8A",
"4X c #F7DA84",
"5X c #E7C795",
"6X c #ECD799",
"7X c #F5D999",
"8X c #F6CD96",
"9X c #EEE187",
"0X c #FEE382",
"qX c #F9E38A",
"wX c #F3E19C",
"eX c #F8E393",
"rX c #EDE39B",
"tX c #DFC4A5",
"yX c #E5C8A4",
"uX c #EBD8A3",
"iX c #F7DEA8",
"pX c #FEDEB6",
"aX c #F1CEA6",
"sX c #EDE3A7",
"dX c #F7E6A7",
"fX c #FDECBB",
"gX c #F8E7B8",
"hX c #FBF4B3",
"jX c #FEEBC4",
"kX c #FEECCB",
"lX c #FBE5C5",
"zX c #FEF3C4",
"xX c #FEF4CA",
"cX c #FEFDCD",
"vX c #FFF8C7",
"bX c #FEE7D3",
"nX c #FFEBD2",
"mX c #FEECDA",
"MX c #FFF4D2",
"NX c #FFFCD3",
"BX c #FFF4DA",
"VX c #FFFCDC",
"CX c #F5F5DB",
"ZX c #FFF6E3",
"AX c #FFFCE3",
"SX c #FFFDEC",
"DX c #FAF5EE",
"FX c #FEF5F4",
"GX c #F6FDF5",
"HX c #FEFEF4",
"JX c #FDF5FC",
"KX c #F6FEFD",
"LX c #FEFEFE",
"PX c #F6F6FA",
"IX c #FFEDF2",
"UX c #F7DDC6",
/* pixels */
"LXLXLXLXLXLXLXLXLXLXLXLXLXLXLXLXLXLXLXLXLXLXJXLXLXLXLXHXKXGXKXKXSXGXHXHXHXHXHXKXLXLXLXJXLXJXLXLXLXHXLXLXLXLXLXLXLXLXLXLXLXLXJXLX",
"LXLXLXLXLXLXLXLXLXLXLXLXLXLXLXLXLXLXLXLXLXLXLXLXLXLXLXLXLXKXKXKXGXGXKXHXKXLXLXLXLXLXLXLXLXLXJXLXLXLXHXLXLXLXLXLXLXLXLXLXLXLXJXLX",
"LXLXLXLXLXLXLXLXLXLXLXLXLXLXLXLXLXLXLXLXLXLXLXLXLXLXLXLXLXLXKXLXLXLXLXLXLXLXLXPXLXLXLXLXLXLXLXLXLXHXLXLXLXLXLXLXLXLXLXLXLXLXLXLX",
"LXLXLXLXLXLXLXLXLXLXLXLXLXLXLXLXLXLXLXHXLXHXHXLXLXLXLXLXLXLXLXLXKXLXLXLXLXLXLXLXLXLXKXLXLXLXLXLXHXLXLXLXLXLXLXLXLXLXLXLXLXHXLXHX",
"LXLXLXLXLXLXLXLXLXLXLXLXLXLXLXLXLXLXLXLXHXSXHXHXLXLXLXLXJXLXJXLXHXLXHXLXLXLXLXLXLXLXLXLXLXKXLXLXLXLXLXLXLXLXLXLXLXLXLXLXLXHXLXLX",
"LXLXLXLXLXLXLXLXLXLXLXLXLXLXLXLXJXLXLXLXHXHXHXKXLXKXLXLXLXJXSXSXVXVXVXAXAXAXSXSXSXLXHXLXLXLXLXLXLXLXKXLXLXKXGXKXGXHXHXHXLXLXLXJX",
"LXLXLXLXLXLXLXLXLXLXLXLXLXLXLXLXLXLXLXLXHXGXKXKXKXLXLXJXHXZXMXlXuXsXsXsXhXvXNXVXNXAXSXHXLXLXLXLXLXLXLXLXLXLXHXSXHXHXHXLXLXLXLXJX",
"LXLXLXLXLXLXLXLXLXLXLXLXLXLXLXLXJXLXLXLXHXKXLXKXLXLXLXFXZXzXdX3X9X9X2X2X2X6XrXdXfXzXNXAXSXSXGXLXLXLXLXLXKXKXHXHXHXHXLXLXJXLXJXLX",
"LXLXLXLXLXLXLXLXLXLXLXLXLXLXLXLXLXJXLXLXLXLXLXLXLXPXKXAXgX6X4X&X$X`.`.@X`.{.{.2X2X6XuXsXfXNXVXAXHXLXHXLXHXLXGXLXLXGXLXLXLXJXJXLX",
"LXLXLXLXLXLXLXLXLXLXLXLXLXLXLXLXLXJXLXLXLXLXLXJXJXLXAXcXwXqX#XOXOX(.OX$X$X$X@X^. X3X2XeXwXwXdXfXNXAXSXSXHXHXLXLXLXLXLXLXLXLXLXLX",
"LXLXLXLXLXLXLXLXLXLXLXLXLXLXLXLXHXLXLXLXLXLXJXLXDXAXzX,XoX|.OXR.(.+X$XOXK.J.'.$X$X|.|.&X}.{.{.9XdXhXzXNXAXHXLXJXJXJXLXLXLXLXHXHX",
"LXLXLXLXLXLXLXLXLXLXLXLXLXLXLXLXLXLXLXJXJXJXJXHXAXjXN.^ Q.+XG.& J.'.@X@.& z T.+X/.).'.$X@X@X@X}.{.{.wXgXxXZXLXLXLXLXLXJXLXLXHXSX",
"LXLXLXLXLXLXLXLXLXLXLXLXLXLXLXLXLXHXLXJXLXJXSXNXuXdXqX}.|.'.(.].%X0X%X].J.].'.).K.R.).(.(.OX@X(.^.^.{.6XdXlXBXSXLXLXLXLXLXHXHXHX",
"LXLXLXLXLXLXLXLXLXLXLXLXLXLXLXLXLXHXPXGXLXHXBXfX3X X'.+X$X#X|.0X%X}.XX}.|.%X#XU.T.R./.K.J.(.+X].(.`.XX{.3X6XgXzXAXSXHXLXLXLXLXLX",
"LXLXLXLXLXLXLXLXLXLXLXLXLXLXLXLXKXGXKXJXHXAXjX7X&XOXOXR.v z Z.[.4X&X%X%X|.'.|.|./._._.J.Q.XX|.XX|.|.'.|. X X9XrXhXcXAXHXLXLXLXLX",
"LXLXLXLXLXLXLXLXLXLXLXLXLXLXLXLXGXGXLXHXSXMXdX2X|.R.E.R.v | ~.3X X X%X.X].P.!._.|.|.|..X.X.X.X.X_._.'.|.@X}. X9X9XhXNXAXLXLXLXKX",
"LXLXLXLXLXLXLXLXJXLXLXJXLXLXLXKXPXKXHXAXxX<XrX@X#XOXOX+X$X%X%X.X.X%XU.d O O i I.'.@X@X&X%X|._.Y._.+X%X|.}.#X@X`.&XeXdXAXHXLXLXKX",
"LXLXLXLXLXLXLXLXHXHXLXLXLXLXLXLXLXGXCXNXsXW. X&X'.'./.Y.2.b X.h.'.'.4.i g Y ~.#X|.@X`.^._.~.J > k 1.!.|.|.'.'.+X}.4X6XVXSXKXKXKX",
"KXLXLXLXLXLXLXLXLXLXLXLXLXLXLXLXSXAXcXcXdX1X4X[.c J c i # X % z '.#X|.!.!._._.R.U.^.^.#X#X!.x . $ u X.~.|._.J.K.K.M.,XxXZXLXLXKX",
"LXLXLXLXHXLXLXLXLXLXJXFXLXHXHXAXzXsX6XsXeXXX[.c.t d b X.X.2._.%X|.'._.L.=.L b t $ z *X`.|.!.4.x < r z p.~.P.5.@.@.$.N.jXSXLXLXLX",
"LXLXHXLXHXHXLXLXLXLXLXPXSXAXAXzXwXeX4X4X4X0X0X|.#X%X$X'.@X@X$X+X@X@.u $ X u b X.%.].%X0X%X_.Y.L.R P ;.a.a.-.,.p.p.M.-XnXFXJXLXLX",
"HXLXHXHXHXKXLXKXKXLXLXLXSXVXvXwX X.X0X%X|.|.%X}.}.}.}.`.+X$X$X_.#XG.z z R R.+X$X$X|.'.!.K.s.2.K 7.6.3.f.f.a.4.p.%.Z.1XBXSXLXLXJX",
"LXLXHXHXGXKXKXKXKXKXLXLXAXzXdX9X|.!._.#X$X%X&X&X0X X|..X_.L.w.w.Y._.+X+X+XOXU.G.s.a.-.*.;.4.4.1.6.<.;.;.x.c.s.2.O.%.:XBXFXLXLXLX",
"LXLXLXHXLXLXKXKXLXKXJXSXNXsX2X0X!.h u v J.}.{.&X&X}.|.|.z.2 + + < 0.R.T.G.5.K 1.<.9.j.j.j.3.5.,.K 6.z.x.a.f.a.p.%.Z.5XVXSXJXJXLX",
"JXLXLXLXLXKXKXKXLXLXHXBXgX7X{.p.1 + + r 2.'.%X&X{.#X%X_.6.< ; 1 y u <.1.R 1.G.T =.k.>.k.>.k.*.<.6.=.;.a.d.r.2.p.%.M.=XnXHXLXLXLX",
"JXLXLXLXLXLXKXKXLXGXAXjXdX4X].,.y : p 0._.|._.}.%X#X/.Y.q.N 1 ; 1 j 6.<.1.G.7.0.>.k.k.k.>.>.=.<.<.1.g.g.f.p.p.P.t.M.=XnXFXLXKXKX",
"LXLXLXLXLXLXGXLXHXAXNXdX4X0X#XJ.R.R.R.R.R.)._.U.K.5.K R E V 2 ; : U 6.U 7.7.T 6.w.k.k.g . > =.z.<.1.a.f.g.g.a.O.M.M.=XnXHXLXKXKX",
"LXLXJXLXJXJXHXHXVXzX7XM.' 5.).+XOXOX~ & $ k R P H H H M D D D m h z.q.8.H.H.8.6.>.>.z.g O O >.w.q.0.x.f.C.C.d.+.d.M.=XbXFXLXKXKX",
"LXJXLXLXJXLXHXVXcXhXqXJ.5.H.OX).H.H.n , ; , h Y C Y Q Y D D Q R 7.8.W W N I L.w.w.>.v.i O r w.>.q.0.l.r.r.d.a.f.F.D.=XbXHXLXLXKX",
"LXGXJXLXJXLXSXxXeX&XR.G.H.H.Q M n m h 4 4 4 0 0 C B B D D E R T 8.P < , o ; 8.U q.9.9.f t i w.q.L i % a } d.f.f.F.D.=XbXFXLXKXKX",
"SXGXLXLXJXHXAXiX4XK.l l l 8 M M B Y D 0 6 e e 6 e 9 q D F ~ G.~ H.6.3 3 o o I w.9.l.T.c.3.j.q.q.L > . t y.S.i.y.Z.D.=XbXHXLXLXKX",
"GXGXLXLXFXHXBX1X&.k l S 6 w m M B 8 8 B B 9 8 e w q Z S E A R H.7.L.p < ,   h q.1.l.3.g.1.l.9.z.z.=.:.C.S.i.y.i.Z.D.>XbXHXLXKXKX",
"LXGXLXLXLXHXVX5X@.5 q e 6 6 V N 8 9 9 9 9 q q Z q A M E Q R Q W <.T.L.G # > =.T.4.g.P.K.g.a.j.v.T.T.I.c.r.x.S.F.F.:X=XmXFXGXKXKX",
"JXLXLXHXGXLXZXaXz 5 q ~ 7 7 V M B 9 9 9 q B m D A A N R R M 7.7.7.T.Y.Y.9.<.j.l.l.s.p.s.g.x.c.c.c.g.c.a.r.x.y.} F.=X;XbXSXHXKXKX",
"LXLXLXLXJXLXSXiX| 5 Z ~ ! 7 D I 8 9 9 B B m m V m E E Q W W 8.6.1.4.0.I.L.l.l.c.c.s.p.a.x.c.x.l.P.C.x.2.f [ e.y.F.B.=XkXSXLXKXKX",
"LXLXLXLXLXLXFXjX%.k A ~ 7 7 Y E C B 9 C B B C B B W h ; ; h 8.8.T.4.l.T.9.j.I.v.s.s.s.g.l.l.x.x.g.C.C.-.d f r.f.F.m.N.kXAXGXLXKX",
"LXLXLXKXLXLXHXMXM.v N F 7 6 D U Y C C C Y Y C V Y I 1     : U q.0.K.T.z.z.z.1.f d X.a.l.j.j.j.v.C.d.d.a.3.3.;.v t.#.B.kXAXHXLXJX",
"LXLXHXLXLXLXJXZXoX .k D e e E I Y B 0 0 C C Y V I h 1 < : : j 8.0.s.l.l.j.z.:.# t u *.s.3.3.u.j.f.d.a.a.;.2.X. .$.#.-XMXSXLXLXLX",
"LXHXLXKXLXLXJXZX7X%.x A e e E Y V 4 , , 2 h I I W W h y o O H z.I.G.0.0.9.k.=.i p d *.3.3.=.G f ;.-.;.-.c v ..$.#.{ <XVXSXLXJXLX",
"HXLXHXLXLXLXJXSXzXD.x M Z D W W M 2 ; ; : h I w.H Y.I.P r i w.9.2.2.4.0.L L =.6.<.<.=.<.3.j y . *.c c *...o.+.' { ) 5XAXSXLXJXLX",
"HXLXLXLXLXLXJXFXNX8X*.N E E U 6.H p < > p G L T L 6.L.I.L.1.<.4.K 1.0.K 6.H H P L T K K =.=.J f x G c d [ o.m.n.@ ;XBXSXHXLXLXKX",
"LXHXKXLXLXKXLXHXNX8X..P W W U 6.6.L G G P =.<.<.1.6.3.0.a.;.3.4.5.,.K x x p h <.H K K K K <.=.J P G x  .$.{ ) _ tXbXHXHXLXKXLXKX",
"LXHXLXKXKXLXLXHXZX5XX.K 6.6.w.=.0.9.1.1.3.3.3.3.l.2.,.2.3.5.5.2.,.X.b J r 3 y I P K K K v K ..J i z ..} { ) 5XmXDXHXLXLXKXKXKXKX",
"LXLXLXLXKXLXHXHXZX5X+.1.9.9.z.6.3.9.a.9.a.3.3.2.s.p.2.4.s.p.2.O.X.,.2.<.# : y j K K K X.*.....] s $.{ / N.pXAXZXHXJXLXLXLXKXLXKX",
"JXLXLXKXKXGXKXSXZX>X+.1.j.b.v.j.a.s.l.l.g.j.s.l.a.s.s.g.s.s.@.O.2.O.a.l.r O t :.*.X.O.-.O.O.[ ' m./ _ aXNXAXZXHXLXLXLXLXLXLXKXLX",
"LXLXLXLXKXKXHXSXZX>X+.<.x.b.b.j.z.c.x.a.a.a.g.c.f.g.s.h.p.p.p.-.p.+.x.[.b.t O :.c ..] ] ] ' ' { ) tXxXBXZXSXHXLXLXLXLXLXLXLXLXLX",
"JXLXLXLXKXGXHXSXAX5X| K S.S.j.b.x.c.c.j.a.g.g.a.c.g.g.p.p.a.d.2.p.o.x.[.[.:.g f [ s ' ' ' { t.:XnXDXHXHXSXHXGXHXKXGXKXLXLXJXLXJX",
"JXLXLXLXKXKXHXSXSXyX| b S.i.u.v.b.j.x.c.x.c.x.g.g.g.g.g.g.c.y.e.t.t.e.:.S.j.:.s s ' ' { n.-XpXNXFXLXFXLXLXLXLXGXKXKXLXLXLXLXLXLX",
"LXLXLXLXLXLXLXLXSXgX( O.2.a.~.u.b.k.k.b.v.x.g.g.h.h.C.C.e.y.S.y.y.y.[ ] s % s z = = ( -XUXSXJXLXLXLXLXLXLXLXLXLXLXLXLXLXLXLXLXLX",
"LXLXLXHXLXLXJXLXFXkXB.| s.3.b.u.k.j r f l.P.C.Q.Q.d.A.f.a . g :.O s ] s * s | ^ ( ,XhXVXSXLXJXJXLXLXLXLXLXLXLXLXLXLXLXLXLXLXLXLX",
"LXLXLXHXLXLXLXJXHXBX5X^ %.;.k.z.;.r X % f.A.C.~.C.f.x.l.y   1 h a a * ' D.8XaXyXkXBXAXSXSXSXHXHXLXLXLXLXLXLXLXLXLXLXLXLXLXLXLXLX",
"JXLXLXHXKXLXLXLXJXAXfXm.+.3.u.z.z.s . t f.A.Z.C.C.r...p < y h p z = | 7XNXZXFXJXJXJXFXLXHXSXSXSXLXLXLXLXLXLXLXLXLXLXLXLXLXLXLXLX",
"LXLXLXHXHXKXLXLXLXFXNX8X#.g.j.j.~.~.e...A.c.p.l.a.2.f f d J i t - ( ,XcXAXIXIXJXJXJXLXLXLXGXGXGXLXLXLXLXLXLXLXLXLXLXLXLXLXLXLXLX",
"JXLXLXGXHXGXKXLXLXFXAXgX{ y.3.k.S.~.S.u.j.3.*.,.v  .| | ' * / #.1XgXVXAXHXLXJXJXJXLXLXLXPXKXLXLXLXLXLXLXLXLXLXLXLXLXLXLXLXLXLXLX",
"JXJXLXHXHXGXKXKXLXLXZXUXB.$.a.z.r.i.u.;.3.*.c  . .| | / ) ` ;XgXAXSXSXGXLXJXLXPXLXKXKXLXKXLXKXKXLXLXLXLXLXLXLXLXLXLXLXLXLXLXLXLX",
"LXLXLXLXGXGXKXKXLXJXLXmXpXD.d.a.i.:.:.r.a.:.o.' #.D.,X<XlXAXSXHXHXGXLXLXJXLXKXLXLXLXLXLXLXLXLXLXLXLXLXLXLXLXLXLXLXLXLXLXLXLXLXLX",
"JXJXLXKXGXGXKXKXKXJXFXFXlXB.Z.C.h.| s %.d.m.m.N.xXNXAXAXHXGXLXKXLXKXKXLXLXKXLXLXLXLXLXLXLXLXLXLXLXLXLXLXLXLXLXLXLXLXLXLXLXLXLXLX",
"JXLXLXPXKXGXGXLXLXLXJXHXUXN.V.$.m.$.m.V.n.N.yXMXZXZXHXLXLXLXLXLXKXHXLXKXKXJXLXJXLXLXLXHXLXLXLXLXLXLXLXLXLXLXLXLXLXLXLXLXLXLXLXLX",
"LXLXLXKXGXKXKXLXLXLXJXJXCXyX6X5X<XuXgXjXzXjXBXZXHXHXLXJXLXLXLXLXLXHXLXLXLXLXLXLXLXLXHXHXHXHXHXHXLXLXLXLXLXLXLXLXLXLXLXLXLXLXLXLX",
"HXLXLXLXKXLXGXLXKXLXJXLXLXZXNXNXVXAXZXSXSXSXSXSXHXHXLXLXLXJXLXLXHXKXLXLXLXLXLXLXLXLXHXHXHXHXLXLXLXLXLXLXLXLXLXLXLXLXLXLXLXLXLXLX",
"HXHXLXLXLXLXLXHXSXLXLXLXLXHXSXSXLXLXLXHXDXSXHXSXHXHXHXLXLXJXLXJXLXLXLXLXLXLXLXLXHXHXHXHXLXLXLXLXLXLXLXLXLXLXLXLXLXLXLXLXLXLXLXLX",
"SXHXLXLXJXLXLXHXHXHXLXLXJXJXSXHXFXJXLXLXLXLXKXKXLXLXLXLXLXLXLXLXLXJXLXLXJXLXLXLXLXHXHXLXLXLXJXLXLXLXLXLXLXLXLXLXLXLXLXLXLXLXLXLX",
"SXHXLXLXLXLXLXSXSXHXLXLXLXLXLXLXHXLXHXJXLXLXLXLXKXKXKXLXKXHXGXHXLXLXLXLXLXLXLXLXLXLXLXLXLXLXLXLXLXLXLXLXLXLXLXLXLXLXLXLXLXLXLXLX",
"SXHXLXJXJXLXLXHXSXSXKXLXLXKXKXLXDXFXHXJXLXLXLXKXKXKXLXKXKXSXGXSXHXLXLXLXLXLXLXJXLXLXLXLXLXLXLXLXLXLXLXLXLXLXLXLXLXLXLXLXLXLXLXLX"
};
