/* XPM */
static char *_a17f6adcdea421b868c23d9c58ac53cWox6ErPfanoDal3Z[] = {
/* columns rows colors chars-per-pixel */
"64 64 191 2 ",
"   c #92472A",
".  c #98472C",
"X  c #954A2E",
"o  c #994C2E",
"O  c #954C31",
"+  c #9B4D33",
"@  c #945335",
"#  c #9C5235",
"$  c #975B37",
"%  c #9A5C37",
"&  c #97563B",
"*  c #9D553A",
"=  c #955A3A",
"-  c #9D5A3D",
";  c #A14E35",
":  c #AB4F35",
">  c #A44F3A",
",  c #A15236",
"<  c #AC5136",
"1  c #A3553B",
"2  c #AA553C",
"3  c #A45A3E",
"4  c #AA593D",
"5  c #B35A3E",
"6  c #B85D3E",
"7  c #A5613E",
"8  c #A9603F",
"9  c #9E5D42",
"0  c #AB5641",
"q  c #A45D42",
"w  c #AB5D43",
"e  c #A65E48",
"r  c #AD5F48",
"t  c #B35440",
"y  c #B25E44",
"u  c #BC5E44",
"i  c #B25E49",
"p  c #9C6243",
"a  c #A46244",
"s  c #AB6246",
"d  c #A56B45",
"f  c #AC6A47",
"g  c #A6654A",
"h  c #AC654A",
"j  c #A56B4C",
"k  c #AC6A4C",
"l  c #B36246",
"z  c #BB6245",
"x  c #B3654B",
"c  c #B9654C",
"v  c #B36A4E",
"b  c #BA6A4D",
"n  c #A8704B",
"m  c #B1734F",
"M  c #AE6751",
"N  c #AD6D51",
"B  c #B56751",
"V  c #B96651",
"C  c #B56C52",
"Z  c #BB6D53",
"A  c #B66F59",
"S  c #BC6F58",
"D  c #AB7252",
"F  c #AF7955",
"G  c #AF7758",
"H  c #AF7A5A",
"J  c #B57254",
"K  c #BB7256",
"L  c #BB7956",
"P  c #B57559",
"I  c #BC745A",
"U  c #B57A5B",
"Y  c #BD7A5C",
"T  c #BD7D61",
"R  c #C25E44",
"E  c #C16246",
"W  c #C3654B",
"Q  c #C9654B",
"!  c #C36B4F",
"~  c #C26D54",
"^  c #C86E53",
"/  c #C06F59",
"(  c #C27256",
")  c #CB7155",
"_  c #C37658",
"`  c #C2775A",
"'  c #C2755B",
"]  c #C77658",
"[  c #C2745D",
"{  c #C1775C",
"}  c #C1775E",
"|  c #C5755C",
" . c #C6765F",
".. c #C6765D",
"X. c #C3755B",
"o. c #C87759",
"O. c #CA745C",
"+. c #C3785B",
"@. c #C0795D",
"#. c #C2785F",
"$. c #C4795C",
"%. c #C5795F",
"&. c #C67B5E",
"*. c #C6795F",
"=. c #C47A5E",
"-. c #C8795A",
";. c #C97A5B",
":. c #C97A5C",
">. c #CA7B5C",
",. c #C87A5F",
"<. c #CD7C5E",
"1. c #CE7D5F",
"2. c #C97A5E",
"3. c #D77256",
"4. c #DC765D",
"5. c #D2795E",
"6. c #C47760",
"7. c #CA7662",
"8. c #C67A60",
"9. c #C57B62",
"0. c #C37E61",
"q. c #C17F63",
"w. c #C57D65",
"e. c #C47C61",
"r. c #C97960",
"t. c #CA7862",
"y. c #C97D63",
"u. c #CA7F62",
"i. c #CA7D63",
"p. c #CD7B65",
"a. c #CB7F65",
"s. c #CD7D66",
"d. c #CF7F66",
"f. c #CD7D65",
"g. c #CB7D63",
"h. c #CB7E6A",
"j. c #D37D64",
"k. c #D07E68",
"l. c #D17F69",
"z. c #BC805B",
"x. c #BE8363",
"c. c #BE8969",
"v. c #C2805D",
"b. c #CB815F",
"n. c #C38063",
"m. c #C08064",
"M. c #C08364",
"N. c #C38364",
"B. c #C58267",
"V. c #C48264",
"C. c #CB8061",
"Z. c #C88366",
"A. c #CA8065",
"S. c #CB8265",
"D. c #C48A65",
"F. c #CA8963",
"G. c #C78668",
"H. c #C6856A",
"J. c #CD8368",
"K. c #CB8669",
"L. c #C8856A",
"P. c #CF856A",
"I. c #CC846A",
"U. c #C78869",
"Y. c #C68A6B",
"T. c #CC8A6C",
"R. c #D38465",
"E. c #D28266",
"W. c #DB8166",
"Q. c #D2856B",
"!. c #D88769",
"~. c #DA866D",
"^. c #D4886E",
"/. c #D38A6D",
"(. c #DA8A6D",
"). c #CC8D72",
"_. c #DD8770",
"`. c #D48C72",
"'. c #DA8B72",
"]. c #CC9072",
"[. c #D39073",
"{. c #D39174",
"}. c #DA9075",
"|. c #D99477",
" X c #DB9176",
".X c #D39578",
"XX c #DD947B",
"oX c #DE9D7F",
"OX c #E08D74",
"+X c #E2987D",
"@X c #E49C81",
/* pixels */
"a N j k T N P g 9 U U M g N g N 9 h 0 9 g 9 g p g M N N C e B p.l 4 ; z b , 4 8 2 ! b 6 4 4 ! K f D k Y J a k v - v h B S v  .k.",
"k P J N B.J q.T I q.T T H.T I T A w.A A N g M P g N M N B B V s.2.2.b _ ] ( b.] ( R.b.-.] -.!.b.L D.Y N.U.n.G.J Q.}.u.%.%.Z o. .",
"0 h h q A q S S A h e C 6.A h C q A M h g 9 g P C T T B A B V Z x K l , 2 f ! 8 4 f 4 l b f b , k D.N.U k v K.K.C Y v Z | Z | ( ",
"h A B i [ r S S # 1 > 0 r 9 + 0 0 A e h N h A P M T A M B V i i x ] v l l b b.b s b x Z _ _ Z 7 - P L J q & J Y 1 x w s x q w 0 ",
"S / / V l.V / V V 7.7./ Z V / 7.B I r B { S S k C 6.S B / 7.7.7.b { K =.&._ A.+.( 9.I %.p.u.^.p.Y x.Y `.|.0.+.K K A...y.u.I  .k.",
"V i i i 7.0 0 2 ; V V 0 > > 0 i w h # w Z C h q e r 1 + 1 i V / { { S e._ h s h e x 2 q w h w.I.K k a I Y a h k w S s w r 4 Z 2.",
"i V x V 7.w i i i V Z B i i i Z w Z l x S v S C I O.S V ~ Z ~ j.`.`.p.K.w.k Z v x A k C C k p.I.0.n.Y V.I h I A.e./.I Z x r Z K ",
"V V S / l.i / / / / Z 7.s./ Z 6.S Q.9.| S h Z | w i V | 7.~ V O.[ 9.S S A C I P B T I w.{ A T A K 0.Y I./.e.%.v C =.C ( y.| y.y.",
"* h 0 e h 1 e S A S B A C q r 1 s x # + 1 1 l B c i ; w c 2 4 0 w A h h e s k 0 & q e B k # * # q A k w 3 1 x s h 1 O r l * 1 w ",
"I T k C I N I T I w.J I C k I A s Z r l S c ( | O.l.~ ^ 7.O.j. .S w.I I %.e.J.I I T S 9.e.K w.w.Z I Z I e.=.e.S I %.I I S l Z v ",
"N A 9 k P k N N k C g g 9 & N I k ( b m ( b b c y O.b l c b ( Z s S x C I { A.K u.=.C A S v { { v x w ( J.9.{ r x J.y.K v S d.{ ",
"& g 9 g U g g - g N g p 9 9 T T s K s x x 0 4 2 t ^ l l x l v l w C l v b K e._ { K w w q 4 l s h w * v { x h 1 1 C l 0 # 0 { S ",
"D H.q.T.).B.q.I N N j C P C x.T J =.K I 2.] g.j.y.j.O.j.(.-.-.-.{ g.>.&._ _ (.!.g.E._ &.b.&.R.<.y.=.{ J.J.{ d.J.9.Q.u.d.%.I d.y.",
"q N g e g q g g g N q N P P I N 3 f 3 8 v x ( ( 4 y # y v - * 3 1 8 1 , # o 8 8 4 s 4 8 l 8 b 8 0 x 0 l e 4 Z ( l C l I K w w q ",
"k I k g k k I I C A h J T I T C J v.m L >.( -.-.~ >.b ] -.b K ( ] _ b ^ ! b ] ( z _ c b z l b 8 B ( v Z c c 9.9.l B l Z Z w x x ",
"A h.S I h.h.`.`.I I B S [ I 9.S f _ K _ A.I ( ~ Z !.<.| -._ S.C.>.>.m -.b.>.b.^ ] C.] ! Z b >.] | d.( ~ |  .l.( d.Q.{ I S S J.J.",
"r x w w s 0 x w y Z 0 2 0 r ~ x 2 q * v I 0 w l l Z l , o + x h J d 3 x x o 1 4 y c 4 y y 1 y , 1 4 2 y y 5 0 ; w 4 , w 4 4 K v ",
"9.Q.A.Q.Q.y.E.y.6.p.( .. ./ t.y.S u.( e.Q.| ( ~  .t.| t.y.{ J.A.k L L v.A.%.u.( ( >.~ ) -.( j.>.(  .~ o.j.O.j.O.z o.( K v K =.a ",
"C I K Y { b { K { ( v =...x b Z x %.C v S Z S s 4 q 1 S ( x v h 7 Y Y L K &.>.l w c l ~ ~ b { Z Z Z l b ~ Z O.^ ~ 2.2.u.-.K Y 7 ",
"k J k C v a J A K P C =.{ h v s s Z 4 0 l h x x h x w K { B Z h - L k f 7 x K 1 . 1 1 l l 4 5 , l l 2 w z y c l y ; + x s   # - ",
"x.N.n.T.U.Y G.G.Y K.V.Z.A.A.A.I Z I l { p.K I ..K u.S K K K u.{ L Z.v.Z.A.b./.j.~ o.| E.j.| g.| E.!.<.R.(.E.(.j.j.( Z Q.A.b =.S.",
"- a - n k - 9 = @ a 9 3 q q k - + + O s C + O + w S h 0 2 0 S v = a a b b 3 l s 4 l 2 w w 4 b v w s 3 l x y l 4 x ( K +.m Z =.s ",
"n.Y J N.Z.P Y J K Y K P K K e.{ Z [ Z { A.K S J K =.K I K C %.I v L J L K s c x l b x b x l ( ( l x s x b x b y 4 b b b s x J # ",
"@X.X0.T.[.Z.`././.J.I e.=.J 9.p.y.^.I S =.=.I.V.e.w.=.^.^.I ..{ Z.[.A.u.( ( g.2.( j.g.!.J.-.J.v.e.J._ A.Q.C.(.j.g.j.=.Q.b.-.J.L ",
"C K q # * 0 x 1 1 1 , x l + w Z l S q 1 3 g v - q v a w 3 1 s 1 f K 3 o   # l 4 , 4 w Z c , 4 l s k # # # # l 4 , 4 s x s # 3 8 ",
"C u...y...I ..x C  .7.Q.W.7._.~...p.Z C K K Y D J V.0.V.p.9.p.I K v._ I K K ] b l b b o.( x K I =.=.K K K Z ..Z b Z l Z b s v v ",
"| J.y.t.S l Z Z V j.7.O.O.7.~.| ( ..Z { =.J U k J Y I e.e.I y.I u.C.{ +.%.( u.| 2.k.( ( I K C.A.v.S.L =.C.C.R.+.!.(.-.{ &.=.C.K ",
"b Z x x 2 + 2 w 2 c 4 > > y c 2 + 1 + s h & - @ a k a h w 2 i w s a + 3 4 , w y c Z 1 o o # s 3 - 7 & 7 l x v 4 2 Z 3 X # x b   ",
"u.J.u.^.^.9.R.J.t.Q. .d.E.k.(.k.7.p.( A.K.T D.x.Y.].G.T.Q.u.~.Q.=.=.I R.!.-.u.2.j.!.( Z K ( C.L Y v.L v.S.C.!.-.( !.=.+.+.J./.L ",
"S P k v C v I C v Z x ..{ l x s Z S s s h k L U a j j K S s c x K K l K Z l ~ ( x ( Z { _ K { k J Y m J J b I v ( Z v >.b.b I -.",
"Y T k a q g K J C J v P A q s 3 w b 0 3 = - k p % d 9 k x 4 w 4 x b 3 s 1 1 c Z s b x K K s v d d J k x s s x w l w , x x , 3 3 ",
"K Y.V.n.Y G.`.n.K./.A.I.J.A.}.'.t.OX'./.T.Z.].L Y.Y.Y J.A.( y.y.I F.J.!.g.{ E.C.Q.R.-.J.>.m =.v.K S.b.S.g.%.C.2.y.(.2.] _ 5.b.v ",
"3 3 3 Z S 1 3 1 x S r 2 > 1 c y 2 1 < m ( 8 a 7 v K x 8 w 6 ^ x s x L =.Y h q h C Y k h g k Y Z 5.z < ) O.< < 4 c W < < 5 z 3.z ",
"C C h K I Z u.E.~ | c x c c O.S b c l >.b.x m _ _ v.b K ( ( O.Z s k J +.Y K v k Y =.v v k s L v 5 6 6 ^ ^ w l y i c 2 4 u z ! 6 ",
"`.|.Z.J.A.A.+X@Xd.p.I d.Q.y.d...) R.<.C.=.+.Q./.v.=.b =.E.-.j.] A.=.n.V.K.K.G.Y e.A.Y V.Z.=.T.P.b.(.P.!.`.`.).T A.P.V././.R.!.b.",
"3 k a 3 * & a q - - * v x * 1 * # Z x # # s K f s a 1 x v 4 l s s h a - 3 h s * = 3 # k J h m J m m % $ p j G = p d 9 k f % 7 7 ",
"J V.e.K.G.n.T.Z.v J J Y K d k C K e.I m Z K =.J L Y J +.I l I +.Y V.=.K J Y n.Y v J k Y Y k K J D.v.n F x.c.T H H T U m.z.m L L ",
"Y V.Y K.T.U.[.T.T..XU.U.x.J K.]./.-.K (.}.+.v.G.F.Q.v.S.+.J >.A.K J Y J J Y +.Y K.K.n.K.Q.V.T.K.D.D.z.].D.G T T T B.T q.v.Y A.&.",
"s w 1 k b h v k k J k g p p D k s & X x J = - q k J k g a - k s h a q h k x h k q h 3 a h a C h f J J I C 9 9 9 g A h h l z ! l ",
"%.| S ^.XXQ.^.Q.V.[.T.T.T.K.[.0.I I.G.K./.T.[.0.Z.[.G.v.0.n.K.U A.I J =.A.=.Y I K =.K J K I A.{ L b.K %.w.e.w.A 6.I.7.7.7.j.~.) ",
"Z ~.c V ~ c ^.I h x x I J w v K L T.P J =.Z.T.Y T U J K.Y.D j a K J.=.I I 9.Q.%.v K K I.Q.K I C ( J.x C A 6.@XI.h.h.A l._./ ~ ) ",
"y ^ i i 2 > V i + 3 1 h h w Z Z I e.h q k v v s q q q J k = 9 $ a v w w w h K h s x q v h 3 s 3 w h X @ 9 9 A M e M e M 6.r r t ",
"_.OX~._.(.~._.~.k.~.t.J.E.Q.'.`.}.XXw.h.`.J./.T.6.T.B.).Y.x.).H.K./.e.A.I.e.`.Q.A.Q.e.9.=.I u.Y Y D.J n.w.P Y.x.T ].c.@XoX{.`.T.",
"~ r y c |  .V c ~ %.c x x Z ..B C I k { p.S A C A 9.I U P P x.P J K h K K x K Z b ..K K K S =.v a m j x.x.j G j D T G D L U D.Y ",
"s * 4 w x C w w r x 4 2 y x | x B C r S 6.r w w M A M k j N T j q w 0 k C h x h a Z s s h s C w , f 7 v.Y 7 k d p F p $ d d m n ",
"e.T.`./.p.=.A.^.e.J.I 9.p.J.'.J.I.^.7.h.`.w.h.h.p.I.6.w.H.).].c.I 9.( Q.^.Q.'.Q.J.^...| { | J.>._ W.] R.J.( ).T.Y T.v.z.D.v.b.v.",
"g Y J D j q J k J K h K K h V x M A r B / B S S B A M A P M P N k S h x S K y.v { { C S S v { ( E 3.R E u t O.| x ] b K -.m b 6 ",
"F Y.k D J J T.k J K v { P h C B B 6.A S 6.B B 0 B S C I P p j j S e.x k x A K r q w q Z Z w x l E 4.Q Q u u j.^ u b 6 l ! 6 8 8 ",
"].].Y..X.XV././.J.p.d.J.d.e.p.I.Q._.'.@X`.I Y e.J.^.`.`.V.V..XU P w.T.)..XT.V.T.=.V.=.S.v.x =.C.R.(.R.!.!.C.}.}.I.XXP..XXXe.T T.",
"p j d n k 3 s w I Z x c v v v Z 1 y x h.T a h k x C x Z a h U a 9 9 e h C h q h v L J v.L f f f 8 b l b b 3 s 3 s U N g N g g M ",
"U D.x.N.=.P 9.{ 2.I Z S K { I =.Z ~ K T.K.A J K { ..( { J Y T.x.A A S I 6.I Z I J K x K m l K K f L m ] K s k 3 N N.P k M G T T ",
"k N.Y x.Y I u.| u...{ 9.J.I.I.J._.Q.2.I.T.U V.Z.I 9.[ { Y Y T.G.h.d.6.( p.7.S { u.u.{ >.C.I h.J.>.b._ b.V.Y Z.0.w.`.B.m.w.T ).H.",
"- D k k h s C h 4 4 q w h v h s y 0 O * - $ h k s Z x x C k J J S Z y y c c y c y x l ( S 0 0 + 4 s 1 3 a 3 v k - 3 - N M 9 g g ",
"P V.=.e.%.I ..S I %.e.u.e.e.0.=.{ | K 0.m.Y n.n.Z y.( | u.P T Y ^ ^ W ~ o.] / 7.y.g.p.^.l.S A A +.=.L =.v.=.A.Y Y A I `.).T L.h.",
"K K v I K v S h K I { C v C J K Z %.I V.n.J J C S u.K ( p.P Y v.( ) ^ ^ O.) ^ p.6.7.I p.w.A h.`.Y e.K Y =.K Y C I P S w.T J h.I ",
"w 4 + e l 1 3 1 h x k q - q h v 4 s w k j - a - w S r r Z s k v 4 l x l v w 0 x q B h A A e A T J P k v v k C h v C h w * 0 A & ",
"( d.{ d.A.p./.V.e.J.I =.I S %.I ( 9.I U Y n./.K.g.g.t. .%.=.n.K.&.P.b.b.>.&.P.b.P =.w.H.H.L.L.H.T H.9.q.V.=.I.9.u.p.J.Q.Q.Q.p.e.",
"Z ( v Z S v K b { I C =.{ v K Z K %.C v k k L J s x |  .-.I J v f K x v f a m d v J P I A N g g g P C U Y K I h v S K K S Z Z Z ",
"S | b S K v K C s h w Z C w l 0 s v a p p - k g 1 w x I C s - @ # 7 7 d d k I J & - 9 a 9 9 & & @ e a k k h h - a x v b l 5 w l ",
"/ ..K 9.e.I n.=.p./.I.'.'.Q._.d.J./.S.K.U.x.T.K.J.Q.~.(.Q.J.V.T F.{.T.Y.I.G.T.V.P U =.e.w.B.I.T.T H.T B.G.w.T.p.{ 2.g.j.>. .O.5.",
"2 w q x v a h h w I V V c ~ ) i w x g k k - a - 4 0 w w r r v C g N g g h a v q h h h s w s x x 9 g 9 9 9 9 h q v x b b Z Z c ! ",
"k x h K K h v h h ..S V Z ~ O.i r x h J D j k k h l x c x v C J q M g M P e.T.p.{ ( ~ b c c ~ S M P N P A C A r r w 4 y z z l u ",
"/.P.9./.Q.Y V.e.%.A.7.p.j.O.j.5.{ e.Y K.Y.M.T.T.^.~._.l.d.p.q.w.B.).T 6.p.w.^.p.Q.Q.W.j.5.5.j.j.H.).H.).T.L.`.h.u.d.j.E.W.j.W.W.",
"S v q v k - h h h w 0 ~ ~ t t t Z J k J D d D C S / / Z Z C C C C S g r h x I x x c z y 5 < < > g N 9 9 9 q C x x Z ( Z z c W ^ "
};
