/* XPM */
static char *_1d5da142c684de7c3fd5f639e881b77LH8vicoIAJPxnogV[] = {
/* columns rows colors chars-per-pixel */
"64 64 245 2 ",
"   c #1E0502",
".  c #250404",
"X  c #2B0000",
"o  c #260909",
"O  c #270809",
"+  c #340201",
"@  c #3D0000",
"#  c #3A0B06",
"$  c #361415",
"%  c #2C0F0F",
"&  c #1E272F",
"*  c #22282F",
"=  c #242B35",
"-  c #292C36",
";  c #272E38",
":  c #2A2E39",
">  c #242632",
",  c #2B323B",
"<  c #293137",
"1  c #34383E",
"2  c #3D2326",
"3  c #440101",
"4  c #4B0201",
"5  c #440D0D",
"6  c #4C0B0C",
"7  c #490906",
"8  c #530302",
"9  c #5C0302",
"0  c #540A0C",
"q  c #5D0D0B",
"w  c #570907",
"e  c #46110C",
"r  c #530F11",
"t  c #451312",
"y  c #4A1314",
"u  c #4A1B18",
"i  c #541314",
"p  c #5B1515",
"a  c #55191A",
"s  c #5A1918",
"d  c #56110F",
"f  c #630303",
"g  c #630C0B",
"h  c #6C0C0D",
"j  c #640807",
"k  c #740D0E",
"l  c #68110E",
"z  c #73130B",
"x  c #670E11",
"c  c #730E12",
"v  c #780E10",
"b  c #641212",
"n  c #6B1212",
"m  c #641C1B",
"M  c #741414",
"N  c #791817",
"B  c #67231D",
"V  c #782217",
"C  c #4B2A28",
"Z  c #532A2A",
"A  c #53312F",
"S  c #4D3533",
"D  c #523534",
"F  c #583737",
"G  c #4F2F2F",
"H  c #652323",
"J  c #6B2323",
"K  c #6C2928",
"L  c #722624",
"P  c #732A2B",
"I  c #792827",
"U  c #653939",
"Y  c #743433",
"T  c #7B3C3C",
"R  c #793535",
"E  c #72312F",
"W  c #5B2220",
"Q  c #7D423D",
"!  c #5E423F",
"~  c #353C44",
"^  c #393C45",
"/  c #673E40",
"(  c #7F3D41",
")  c #5D3F41",
"_  c #394046",
"`  c #4D4E54",
"'  c #684343",
"]  c #7A4341",
"[  c #745652",
"{  c #676E74",
"}  c #586168",
"|  c #82191A",
" . c #85261E",
".. c #822323",
"X. c #8B2C2C",
"o. c #862827",
"O. c #942E2C",
"+. c #89312E",
"@. c #98332E",
"#. c #8B2E31",
"$. c #982F31",
"%. c #8C3433",
"&. c #843C3C",
"*. c #8B3C3C",
"=. c #853638",
"-. c #933534",
";. c #9C3333",
":. c #9D3A36",
">. c #933B3B",
",. c #9B3B3B",
"<. c #993738",
"1. c #A33433",
"2. c #A43638",
"3. c #A43C3B",
"4. c #AA3C3C",
"5. c #A23A36",
"6. c #B13C3C",
"7. c #A33030",
"8. c #88413C",
"9. c #94423F",
"0. c #A7413E",
"q. c #B0403E",
"w. c #C26539",
"e. c #873D42",
"r. c #993D42",
"t. c #A83D41",
"y. c #B03F41",
"u. c #844343",
"i. c #8A4546",
"p. c #954444",
"a. c #9C4444",
"s. c #9C4C4C",
"d. c #984949",
"f. c #9C5352",
"g. c #995758",
"h. c #97504E",
"j. c #A34344",
"k. c #AC4344",
"l. c #A24946",
"z. c #A34C4B",
"x. c #AC4C4C",
"c. c #A5454A",
"v. c #B24443",
"b. c #B44B4B",
"n. c #A7524C",
"m. c #A74E52",
"M. c #A35454",
"N. c #AD5352",
"B. c #A6585A",
"V. c #B25354",
"C. c #BC5453",
"Z. c #B85B5A",
"A. c #B85050",
"S. c #8F625D",
"D. c #BA625C",
"F. c #BB5E61",
"G. c #9A7D7D",
"H. c #A76563",
"J. c #B46562",
"K. c #BA6666",
"L. c #B87373",
"P. c #BC716F",
"I. c #C35C5C",
"U. c #CA5D5C",
"Y. c #C25858",
"T. c #C6625D",
"R. c #C96656",
"E. c #C75F61",
"W. c #C46464",
"Q. c #CA6464",
"!. c #CA6A65",
"~. c #CD6669",
"^. c #CC6C6B",
"/. c #C46A68",
"(. c #D46B6C",
"). c #D66868",
"_. c #CA746C",
"`. c #D5736D",
"'. c #C86E72",
"]. c #D46E71",
"[. c #DB6D70",
"{. c #CD7A7B",
"}. c #C87474",
"|. c #D47373",
" X c #D17B7D",
".X c #DC7B7C",
"XX c #DA7373",
"oX c #E0797A",
"OX c #9D817D",
"+X c #CE8859",
"@X c #D08877",
"#X c #E5946E",
"$X c #E5A86F",
"%X c #757A83",
"&X c #9C7F81",
"*X c #DB7C81",
"=X c #CD7E83",
"-X c #7D848B",
";X c #9E8382",
":X c #9D8789",
">X c #828891",
",X c #888D95",
"<X c #A18484",
"1X c #A28D8A",
"2X c #B39696",
"3X c #B5A4A3",
"4X c #B9A6A4",
"5X c #BBA9AA",
"6X c #B4A09F",
"7X c #C68685",
"8X c #D48D8C",
"9X c #DA8584",
"0X c #D4928D",
"qX c #D6948D",
"wX c #D79293",
"eX c #D78F90",
"rX c #E48889",
"tX c #E08E90",
"yX c #E0AF9B",
"uX c #FFCE99",
"iX c #FFC5A5",
"pX c #D6D7D7",
"aX c #EAEBEB",
"sX c #FCE6E5",
"dX c #FDE9E6",
"fX c #FDEBEB",
"gX c #FAE9E8",
"hX c #FAF1EE",
"jX c #F4F1ED",
"kX c #EBEEF2",
"lX c #F4EFF2",
"zX c #ECF2F4",
"xX c #F3F3F5",
"cX c #FCF3F3",
"vX c #FCFAF6",
"bX c #FAF7F9",
"nX c #F6FBFA",
"mX c #FFFAFD",
"MX c #FBFEFE",
"NX c #FFFFFD",
"BX c #FFFFFF",
"VX c #FEFDFE",
"CX c #FEFDFD",
"ZX c #F4F6F8",
"AX c #E0E0DE",
/* pixels */
"vXNXNXMXVXNXnXNXNXNXbXVXVXVXVXVXMXNXVXVXvXCXMXvXAXAXNXNXNXNXVXNXVXNXNXNXVXvXxXZXNXNXNXNXNXNXMXMXNXNXmXVXjXpXjXNXNXMXMXvXNXVXVXVX",
"NXvXMXNXMXNXNXNXvXVXVXVXVXNXmXNXmXNXVXNXCXCXvXNXZXvXVXNXMXNXNXVXNXNXNXVXmXbXxXNXNXNXvXNXNXNXNXNXmXNXNXbXCXxXvXNXNXMXMXNXNXVXVXNX",
"NXNXNXNXNXNXNXvXNXCXNXVXNXNXVXNXNXmXNXMXvXvXNXNXNXNXNXmXNXmXNXMXMXmXmXvXcXNXNXNXNXNXNXNXNXNXNXNXCXNXvXNXCXvXVXVXNXNXNXNXNXNXNXMX",
"NXNXNXVXNXNXcXjXhXhXhXcXcXgXcXlXlXcXjXjXhXhXfXcXhXhXcXcXlXcXcXxXlXcXgXgXfXcXfXcXhXfXlXlXlXhXhXcXhXjXhXhXhXgXmXmXNXNXNXNXNXMXMXZX",
"vXNXCXCXCXvX1XC F S D S S S D S F S ' [ [ ' U ' / / / / / ) ! ' ' U U ' F F F F F F F D D S S S S S D D F S 5XmXVXVXNXNXNXvXmXnX",
"NXCXxXaXvXCXG.X . + + X + X + + X # U H r i 0 r p r i p y @ . # y i p i r r 6 6 5 @ @ + + + + + + + @ + .   3XmXmXNXNXCXZXxXnXNX",
"NXNXzXpXkXvXOXX s 8.=.r.>.>.*.9.M.P.'.F.W.].^. XtX9XrX*XtXL.# 7X8X@XrX'./.|.'.V.>.>.%.>.%.9.8.*.*.r.=.e.t . 5XVXmXmXNXnXxXmXNXNX",
"NXNXnXZXmXCXOXX s s.m.x.j.x.j._.P.K.c.E.E.~.T.W.Q.Q.(.~.rX{.7 qX@XU.(.T.~.A.b.x.l.x.b.C.0.l.d.s.d.N.c.a.y . 4XmXNXnXxXnXvXNXNXNX",
"vXvXMXMXvXCXOXX p M.i.3 0 L &.=.b w n.n 4 8 4 w l 9 X.~.(.{.7 8X).[.| f b q 8 8 3 K a.9 j h 8 w 4 4 l.z.6 O 4XmXxXbXmXMXNXNXNXNX",
"VXNXNXMXmXCX;XX p f.Y 6 P.=XL.J.K.g z.w 8.P.J.J.^.<.v ^.*X X4 eX[.U.k c.'.Z.D.P.K W p.n Q.K.D.J.H.4 %.d.y . 5XbXcXvXMXNXNXNXVXNX",
"VXNXMXNXmXvX;X. p f.e.@ %.x.,.V.^.b s.b b 9.k.3./.,.o.9X'. X6 8XE.).c V.I.2.c.,.7 J 9.N XXk.t.x.R 3 0.z.5   5XVXcXNXNXNXNXNXNXMX",
"VXNXMXMXVXVX;XX a M.Y 4 ..@.3.k.^.h z.g q %.<.k.Z.T.a.K.*X{.6 eX].U.h A.Y.4.2.X.4 J a.v ).v.2.#.J 4 ,.d.t % 6XmXvXNXNXNXNXNXNXMX",
"VXNXNXNXVXmXG.X p M.i.@ X.q.7.q./.j z.h j r.<.2..XN.z _.].=X7 8XQ.).c N.Y.2.t.t.7 J a.N ).3.3.j.K 3 j.l.t 2 3XmXvXNXNXNXNXNXNXNX",
"NXNXNXNXbXVX<X+ p f.E 3 o.@.q.b.!.h N.g q +.C.W.Q.:.N /.XX=X6 8X`.T.h V.E.2.2.X.4 J a.v [.v.t.-.K 3 -.l.5 O 5XbXvXNXNXNXNXNXNXNX",
"CXNXNXNXmXMX;XX i B.&.3 o.3.7.q.^.j z.q q Z.F.2.U.3.N (.].{.# 8XQ.).k C.C.$.t.<.w B j.v ).q.@.k.K 0 x.a.y O 3XNXvXCXNXVXNXMXNXNX",
"CXNXNXMXMXNX;XX a h.R 3 o.<.k.5./.n n.q m i.a.,.C.q.v !.*X{.6 0XXXT.j V.A.<.2.#.7 B ,.N R.1.k.X.P R Z.a.t o 5XvXvXCXNXNXMXNXNXNX",
"NXVXMXNXMXCXOXX p B.e.@ J L +.a.K.g z.q 0 J P -.Z.3.| (.].=X7 wXW.].z z.V.%.I L 7 B ,.M W.,.R u.u.m j.s.t o 3XCXvXNXNXVXNXNXVXVX",
"mXNXmXaXZXCX;XX s s.=.@ 4 4 8 q b 9 z.b 3 6 3 0 g f | ).*X}.7 8X|.I.z q b 8 4 3 + H a.f j g R T i @ ,.a.t o 3XCXVXNXNXNXNXNXVXNX",
"NXNXkXpXaXvX;XX p M.m.e.e.&.9.8.*.a.N.d.&.T e.&.>.<.b.Q.). X6 <XZ.~.v.:.>.*.*.&.T M.N.>.n.J.H.u.Q i.N.d.t o 4XVXvXVXVXVXmXVXVXNX",
"NXMXMXZXCXCX<XX p f.=.4 8 8 9 g x 8 N.x 8 w w w c f  .Q..X X7 8X_.Y.v f M f 8 0 3 I c.V l.E 0 6 6 3 ,.c.5 . 4XvXVXVXNXVXMXVXNXVX",
"NXMXNXNXvXvX;XX p M.T 6 K.E.E.W.F.g m.q *./.Z.Z.!.;.| (.(. X6 qXQ.[.k j.Q.I.Z.'.P H K.r.[.Y.D.D.H.4 j.z.5 O 4XvXVXNXNXNXMXNXNXNX",
"NXNXNXNXbXVX;XX p g.Y @ -.k.2.A.].g c.x x a.j.4.).0.k Q..X{.7 8XXXI.h V.Y.2.k.,.6 e.K...).v.5.k.P 3 -.z.t o 4XmXVXNXNXNXNXNXNXVX",
"NXNXNXmXmXVX&XX p M.u.@ ..1.4.y.~.h z.b q X.3.;.I.4.N |.|.}.0 8X~.).M x.A.1.<.#.5 H r.M [.6.q.O.L 3 j.a.5 . 4XVXmXVXNXNXNXNXNXNX",
"NXNXNXNXMXNX;XX p h.R 4 o.4.1.v.~.n n.q j >.:.1.I.j.M W..X X6 eXXXU.j Z.Y.$.r.e.6 K r.N ).6.;.0.I @ ,.l.y $ 6XvXmXVXNXNXNXNXNXNX",
"NXCXNXNXnXvX<XX p M.i.3 ..1.6.k.~.j N.g q #.2.3.W.3.N |.^.{.6 8XQ.).c V.C.3.:.-.7 J p.M (.4.4.;.L 3 l.l.y $ 4XvXmXVXNXNXNXNXNXNX",
"CXCXNXNXmXNX<XX p g.Y 3 X.4.;.v.^.g s.g g >.:.;.I.j.M /..X X6 8X`.U.h Z.C.O.5.-.7 J 9.M (.q.7.j.L 3 <.z.y . 3XVXmXVXNXNXNXNXVXNX",
"NXNXNXNXmXvX1Xt i g.T @ I ;.k.2./.n z.x q #.4.;.C.3.N `.!.@X# qXR.).n V.b.2.5.X.7 J 9.N !.@.q.@.L 3 c.z.5 O 5XvXmXVXVXVXNXNXNXVX",
"NXNXNXNXvXCX6XZ p f.R @ N ..X.t.W.q s.q =.#...;.I.:.z T.@X+Xe qX`.R.j x.b.O. .I 8 B 9.z Q.5.@.N J @ -.a.y . 4XNXmXVXNXNXNXVXVXxX",
"NXNXMXnXZXvX<XX i M.e.3 4 4 8 g g 9 M.d.s 4 4 8 h j  .$XiX+Xe qXuX+Xz j h 9 8 4 @ P j.f h q 4 4 3 3 j.z.t o 3XvXVXNXNXNXMXmXxXmX",
"NXNXmXnXxXCX<XX s s.s.e.&.&.8.*.*.M._.h.T 8.&.r.9.+.D.uXyX+X# @X$XuX0.%.9.>.*.&.e.f.N.<.>.r.e.e.] &.x.a.y o 4XvXVXNXNXvXZXbXmXMX",
"NXbXxXnXZXvX<XX p f.u.@ 0 7 7 b *.P M.m 3 6 0 9 z 9  .#X#X+X# @X+X+XV w q q 4 0 @ K l.f h b m 7 6 3 l.z.5 . 4XVXmXVXNXxXZXmXNXNX",
"mXZXmXNXNXCX;XX p M.E 0 K.J.K.@X{.q s.w e.L.F.J.!.@.z R.#X+X7 @X$Xw.j z./.F.F.'.E m 9.n ~.K.J.J.H.3 -.z.t O 3XvXVXbXxXnXMXNXNXVX",
"xXmXMXMXVXVX;XX p M.T 3 %.V.E.Z.W.b s.x n l.t.5.R.0.| ).!.{.7 0XR.`.z N.Z.3.k.a.0 H p.M XXv.:.z.E 4 j.z.e O 3XVXlXbXVXNXNXNXVXNX",
"NXNXNXNXmXVX<XX q B.Y 3 V ;.3.v.^.h z.g g o.4.4.T.0.z Q.@X{.5 8X`.R.h V.Y.4.3.X.@ E n.N ).y.4.@.L 3 ,.a.y . 5XvXvXVXNXNXNXNXNXNX",
"NXNXNXNXmXmX;XX i B.&.3 X.t.7.y.~.h c.x j <.2.5.Q.5.| ).[.|.6 eXR.).v V.C.5.3.#.K g.i.N ].t.7.3.J 3 j.a.e o 6XCXmXVXNXNXNXNXVXNX",
"NXNXVXNXbXvXOX. p d.T 3 ..1.y.b.!.g m.g g -.3.y.T.k.| U.@X X4 eX[.).j V.Y.;.j.N.E K i.M (.y.6.1.J 3 ,.z.y % 4XvXmXVXNXNXNXNXNXVX",
"NXNXVXVXvXNX;X. a f.Q 3 o.3.2.c.^.l s.g f 9.4.1.~.0.N `.^.{.6 eXE.).c N.C.0.D.a.3 Z a.M ~.y.1.3.I 3 l.c.# $ 3XCXVXNXNXNXNXNXNXNX",
"NXNXVXVXvXCX;XX d f.R 3 o.<.k.,.K.b z.b p o.j.;.C.k.k ~..X X6 8XoXE.c N.!./.j.R 6 H p.M ].;.k.<.K @ <.z.t o 4XvXmXNXNXNXNXNXNXNX",
"NXNXNXVXCXCX;XX s f.T @ B B %.9.K.g s.0 B h.R +.Z.:.| [.^.=X6 8XE.).x F./.%.L K 7 m t.v E.r.=.m B m Z.l.5 o 5XCXmXVXNXNXNXNXVXVX",
"NXNXNXNXvXCX;XX s s.=.3 3 4 8 j h f M.L J E 4 w n j | Q..X}.7 0X`.T.n g x 8 4 3 + K j.f h q 4 @ y R V.9.t o 3XCXmXVXNXNXNXNXVXVX",
"NXNXMXNXVXvX;XX p z.B.&.8.8.&.9.>.-.'.H.h.Q &.9.>.-.A.(.^.{.0 8XW.R.z.>.r.e.*.e.&.f.V.;.<.-.i.H.g.h.N.z.e . 4XCXmXVXNXmXNXNXVXNX",
"NXNXMXnXnXvX;XX p M.=.3 6 4 q q l +.'.J @ 6 8 w n j | Q..X{.6 8X`.T.M g M 9 8 0 3 K a.f h V &.Y y @ <.a.t o 4XCXmXVXNXZXpXzXNXNX",
"NXNXVXmXnXCX<XX p N.=.0 J.D.Z.'.@X8.M.w r.P.T.Z.~.;.| (.^.{.7 eX~.).c c.~.I.I.'.P m r.M *XrX'.D.H.4 l.z.# % 4XvXcXNXNXmXAXlXVXNX",
"VXVXNXNXvXNX;X+ b s.R 3 O.V.x.{.9Xq m.x x j.k.4.(.j.v Q..X{.6 eXXXE.c N.U.4.y.,.0 H s.-.rXN.:.l.E 3 ,.a.5 o 4XvXvXNXNXNXNXVXVXVX",
"mXNXNXNXMXVX;XX q B.&.3 X.I.Q.b.W.q z.x g #.t.2.I.3.| XX(.}.6 wXQ.).z V.A.6.3.%.7 ( P.>.~.t.3.-.J 3 j.N.5 O 4XCXVXVXNXVXNXNXNXVX",
"nXNXNXNXvXVX;XX s M.R 3 +.C.3.k.^.h M.q q <.2.2.T.0.v Q.*X=X6 8XXXU.h V.Y.7.0.<.3 Y J.n ).t.5.3.L 3 -.a.y O 4XCXmXNXNXNXMXNXNXNX",
"VXNXNXVXmXVX;XX i g.Y @ o.@.0.v./.j M.g g X.3.4.T.0.N (.].=X7 0X~.).k V.Y.5.5.X.4 H r.M (.y.4.;.P 3 j.z.5 O 4XcXmXVXNXNXNXNXmXNX",
"NXNXVXVXmXvX&X. a h.] 3 o.0.@.v.^.g z.g j ,.4.;.I.:.v ~.XX X6 0X].T.j V.A.7.q.:.4 H a.M (.2.2.3.L 3 -.z.y % 4XmXVXVXNXNXMXMXNXNX",
"VXVXVXNXvXvX<XX a g.&.3 o.<.k.:./.j n.q j %.t.1.A.:.N (.'.{.6 8X!.).k V.v.2.3.%.7 J r.N ).;.0.-.L 4 j.z.t % 4XCXvXNXNXNXNXNXNXNX",
"VXmXVXNXCXCXG.X i h.R 4 N N O.0.W.h s.q g V o.-.Z.3.z Q.*X{.7 0XXXU.j x.Y.;...L w m p.c E.2.O.V m 3 <.c.5   4XvXvXCXNXNXNXNXNXNX",
"NXNXNXMXmXvX<XX a g.u.@ 8 8 8 j v f M.d p &.8 8 j f ..].~.{.6 8XE.(.N 9 h 9 4 4 @ L c.j c j 8 4 3 3 c.s.t O 4XVXvXCXCXNXNXNXNXNX",
"MXMXMXMXCXvX<X. a h.h.h.p.p.a.a.j.j.B.B.H.H.d.d.c.a.x.W.rX=X6 wX*XQ.m.r.a.a.d.h.p.f.B.t.r.r.i.i.i.e.m.d.t X 4XcXCXCXNXNXMXMXNXNX",
"NXNXCXvXvXvX<XX a i.h.g.d.B.h.B.h.f.L.7X=XL.L.'.L.{.8X8XwXL.# 2X0X9X8X{.'.'.L.L.S.Q h.8.u.i.Q Q ] u.e.i.$ O 5XVXmXNXNXNXMXMXMXMX",
"NXNXaXpXjXCXG.X O + + @ @ + + + 6 U Z u t i a r y i s i u + . u Z y a r r p t + @ + + X X # t . # X + + . O 3XmXmXNXNXVXMXNXCXMX",
"MXNXxXaXvXvX:XC A A C Z C C D [ [ [ C Z F / E U U U U U U F F U F U U Z Z Z Z Z Z A Z A C A D C C A A Z S 2 3XVXMXNXNXVXvXvXCXCX",
"NXMXCXCXnXCXhXdXfXsXgXgXgXsXsXgXsXsXgXsXsXsXsXsXsXsXdXdXfXdXfXfXdXdXsXsXfXsXsXsXfXsXdXsXfXsXfXsXgXfXsXfXsXfXbXVXVXNXNXNXNXCXCXCX",
"vXVXVXVXMXMXNXMXVXvXCXvXCXvXvXNXVXVXVXvXVXVXVXVXvXCXvXCXVXVXVXNXCXCXVXvXVXvXVXVXMXNXvXvXVXVXVXNXvXCXCXvXvXVXNXMXNXMXNXNXNXNXNXNX",
"NXVXVXVXMXmXNXmXmXVXMXmXCXvXmXNXMXMXVXVXVXVXVXVXNXMXMXmXVXMXmXMXCXvXNXNXNXNXMXmXnXZXnXnXmXVXMXmXCXNXnXmXVXVXNXMXMXmXMXNXNXNXNXNX",
"mXVXVXVXNXNXMXNXVXmXNXNXmXVXMXNXMXMXMXMXVXNXNXNXNXCXNXNXvXNXmXMXNXNXNXMXnXnXMXMXMXnXMXMXVXVXVXNXNXNXVXNXVXNXNXMXMXMXMXNXNXNXNXNX",
"ZXlXxXzXZXzXzXzXlXxXkXkXxXxXkXkXzXzXzXzXzXkXxXzXpXpXkXxXxXxXzXzXxXzXzXzXzXkXkXaXkXkXzXzXlXlXlXzXzXzXkXxXkXaXZXkXzXzXzXzXzXzXzXzX",
"~ ^ , 1 1 , ~ 1 < < , ~ 1 ^ 1 ^ ^ ^ ^ ^ ~ ~ ~ ~ ^ ~ ^ ^ ~ ^ ~ ~ ~ ^ ~ ~ _ _ ~ ~ ^ ~ ~ ~ ^ ^ ~ ~ ^ ~ ^ ~ ~ ~ 1 , ~ ~ _ _ ~ _ ~ 1 ",
"> & ` ,X} { ,X{ { { -X` ` >X` > = = = = = = & ; ; > ; > = ; & & = > = > = = = & = = = = ; = = = ; = > > = = ` ` ~ ~ ~ ~ ~ ~ ; = ",
"< * %X>X>X-X-X,X{ >X%X} -X-X` & , : , < , ; - : ; : : ; - - : ; ~ = : : ; ; ; ; - ; ; ; ; ~ ; ; = = : , : ; ~ ~ _ _ ^ ~ ^ ~ : - ",
"= < - = * * > * * * > > ; & ; ; = - ; ; = ; ; ; = : : : - ; - ; = = : : : : - - ; ; ; = = > ; ; : ~ > - : = > : ~ , : ~ : ~ : : "
};
