/* XPM */
static char *_b1c6cfa81e14e59f168b084e9680306rwE4qYxsgCFlkdgk[] = {
/* columns rows colors chars-per-pixel */
"64 64 214 2 ",
"   c None",
".  c #3E2E04",
"X  c #442F01",
"o  c #443204",
"O  c #4B3503",
"+  c #4A3907",
"@  c #533D03",
"#  c #593D00",
"$  c #5B4302",
"%  c #56430B",
"&  c #5B4706",
"*  c #5A4711",
"=  c #634600",
"-  c #664901",
";  c #6B4D00",
":  c #604E0D",
">  c #6D5300",
",  c #6E5901",
"<  c #65530B",
"1  c #6A5608",
"2  c #725300",
"3  c #755C00",
"4  c #7B5C00",
"5  c #735E0A",
"6  c #6B5915",
"7  c #725F14",
"8  c #756004",
"9  c #7C6402",
"0  c #77620B",
"q  c #7A6617",
"w  c #7F7337",
"e  c #826400",
"r  c #846B02",
"t  c #8B6E01",
"y  c #926E00",
"u  c #8D7301",
"i  c #86700D",
"p  c #917300",
"a  c #947A01",
"s  c #9A7E00",
"d  c #947A09",
"f  c #816E1F",
"g  c #87721D",
"h  c #A27E00",
"j  c #82753A",
"k  c #85793A",
"l  c #8B7D38",
"z  c #897624",
"x  c #9D8200",
"c  c #9D8717",
"v  c #A18600",
"b  c #AA8300",
"n  c #A58A00",
"m  c #AA8D00",
"M  c #A48A0A",
"N  c #A88E0C",
"B  c #AD9200",
"V  c #AD920B",
"C  c #B19500",
"Z  c #BB9300",
"A  c #B69901",
"S  c #BA9C00",
"D  c #B1960B",
"F  c #B59A0C",
"G  c #BA9E0C",
"H  c #A58D15",
"J  c #A38C1A",
"K  c #A98F13",
"L  c #AC9313",
"P  c #AA921B",
"I  c #A6901C",
"U  c #B39914",
"Y  c #B49A1D",
"T  c #B59B15",
"R  c #BEA100",
"E  c #BCA10C",
"W  c #B8A012",
"Q  c #9E8A2B",
"!  c #96832B",
"~  c #8F8038",
"^  c #9D8B35",
"/  c #93843B",
"(  c #9C8B3A",
")  c #968637",
"_  c #A18C26",
"`  c #AD9524",
"'  c #AA9427",
"]  c #B49C22",
"[  c #B59D29",
"{  c #B89F2E",
"}  c #A18F34",
"|  c #A08F39",
" . c #A49236",
".. c #AA9634",
"X. c #AE9936",
"o. c #A4933D",
"O. c #A9973B",
"+. c #AB993F",
"@. c #B39F34",
"#. c #B29E3A",
"$. c #BAA327",
"%. c #BBA435",
"&. c #BCA539",
"*. c #C29D00",
"=. c #C2A400",
"-. c #CBA500",
";. c #C6A900",
":. c #CCAD00",
">. c #C3A70B",
",. c #CEB101",
"<. c #CEB009",
"1. c #D3B300",
"2. c #DBBC02",
"3. c #D2B40C",
"4. c #D7BA08",
"5. c #C1A619",
"6. c #C5AB18",
"7. c #CDB41B",
"8. c #D2B716",
"9. c #D5BB27",
"0. c #C4AD35",
"q. c #CDB534",
"w. c #D2BA35",
"e. c #D3BB39",
"r. c #CCB22A",
"t. c #DFC001",
"y. c #DEC21B",
"u. c #DEC116",
"i. c #E3C403",
"p. c #E6C709",
"a. c #E8CA06",
"s. c #E6CA1B",
"d. c #E8CA19",
"f. c #EAD11B",
"g. c #DDC428",
"h. c #DBC433",
"j. c #DDC439",
"k. c #E5CB26",
"l. c #E5CB3B",
"z. c #E8CE3D",
"x. c #E5CC34",
"c. c #EEDA37",
"v. c #EBD123",
"b. c #F4E139",
"n. c #F8E12D",
"m. c #AD9B41",
"M. c #B09F45",
"N. c #B2A145",
"B. c #B5A44A",
"V. c #B8A74E",
"C. c #BDA945",
"Z. c #BBAA54",
"A. c #BEAE5A",
"S. c #B3A457",
"D. c #A39D6D",
"F. c #ABA26A",
"G. c #BCAD62",
"H. c #B3A767",
"J. c #C1AC4C",
"K. c #C5AF44",
"L. c #C7B147",
"P. c #C7B14A",
"I. c #CAB44C",
"U. c #CDB74B",
"Y. c #D3BC47",
"T. c #C3AD51",
"R. c #C9B453",
"E. c #C4B25C",
"W. c #C9B659",
"Q. c #CBB753",
"!. c #D4BD51",
"~. c #CBB964",
"^. c #CBBC72",
"/. c #DBC449",
"(. c #DBC656",
"). c #E9CF43",
"_. c #E4CB4B",
"`. c #E9CF4C",
"'. c #E0C748",
"]. c #E9D047",
"[. c #EAD049",
"{. c #E9D647",
"}. c #E4CD57",
"|. c #EBD352",
" X c #E9D557",
".X c #F0DB52",
"XX c #F7E54A",
"oX c #F7E458",
"OX c #D8C665",
"+X c #D4C376",
"@X c #E3CE64",
"#X c #E2CF6B",
"$X c #E4D16C",
"%X c #E9D565",
"&X c #E5D273",
"*X c #EDDD72",
"=X c #F1DD78",
"-X c #F6E678",
";X c #D3C383",
":X c #DED091",
">X c #EDDE8B",
",X c #EEE197",
"<X c #F7EA97",
"1X c #E7DDAF",
"2X c #F1E4A0",
"3X c #F4EDB7",
"4X c #EAE1B8",
"5X c #FBF4C4",
"6X c #F4EED0",
"7X c #FAF6D7",
"8X c #EEE7C4",
"9X c #FFFEEE",
"0X c #FFFBE3",
"qX c #FFFEF1",
/* pixels */
"                                                      E.G.G.G.H.H.F.D.D.D.                                                      ",
"                                              E.W.E.E.E.A.G.G.G.G.G.S.B.B.#.#.%.@.$.                                            ",
"                                          W.R.E.E.E.~.E.A.A.W.(. Xy.W E A A A A S S R R R R                                     ",
"                                      R.Q.Q.Q.R.R.R.R.T./. XXXb.g.E v v v v x x x x v v B B A A G                               ",
"                                  |.'.!.Q.R.R.R.R.P.e.8.f.z.6.V v x v v x x x v x x v x x x x n n V D                           ",
"                              |.|.|. X X X}.}.}.Y.y.i.;.C n x x v v v v v v v v x n v x n x x x x x M N L                       ",
"                            Y./._.`.|. X%X=X<X2X.X3.C n v v v n v x v v v v v v x x x x x x n x x x x v M H                     ",
"                          I.T.P.I.!.!.@X,X7X7X3XI.K n v n v n v v v v v v v v v n x n n x n x x v v n x x M H                   ",
"                        P.P.P.P.P.P.W.:X0XqX6X^.' K n n v n n v n v v v x B B n m n x x x x x n x n x n v v v H                 ",
"                      P.P.P.K.P.P.I.+X3X7X8X;X#.P N n n n v n v v B m x x A A A R R ;.R A m n x x x n x x v v M J               ",
"                    `._./.Y.I.L.K.P.*X<X+XZ.#.` N n n n n n x u 9 x 9 8 8 , , , , 8 9 x A ;.R B n n v n n v v v M J             ",
"                  [.[.[.`.[._.'./.y.v.0.' ` P V m n n n n s r 8 8 9 9 9 9 u u 9 9 9 8 8 8 9 C ;.R B v n v n n v v M _           ",
"                [.[.[.`.).[.).].s.t.R V V N N m n m m v u 9 r i u x u u x i x u x u u u u 9 8 u R :.A v v n n n n v M           ",
"              [.[.[.[.[.`.].`.v.i.R n n n m n n n m s t r u a a x u x u u x u x u x u x u x x 9 u A 1.R n v v n n n n J         ",
"            [.[.[.[.[.[.`.).k.p.=.n n m n m n m n s u d a d u d u x u x x x x x x u x u x x u 9 t t Z 1.R n n n n n n M Q       ",
"            [.[.`.[.].].].z.p.:.B m m m n m n b s p d p a a a x M B A A B C R ,.R x u x u x x x a u p Z 1.R n n n n n n J       ",
"          [.[.[.].].].[.].d.2.C n m m m m m n s u a a u x a a x x a r 3 - = 2 p x x x x x a a x x a u s *.1.Z n n m n n M Q     ",
"          ).).).).).).).k.i.S m m m m n m n s a x a a x x a a 8 3 3 > = $ # = 2 9 x u u a a x x a x a u b -.:.B n n n n m J     ",
"        ).).).).).].).x.a.:.m m m m m m m s s a x a x a a a u 9 9 9 3 ; = # - 2 u x x x x x x x a x s a a Z 1.*.n m n m m M     ",
"        ).).].).).).).d.2.C m m m m m m v a s s a a x s x x x 9 9 r 4 ; = $ ; 2 u x u x x x x x x x s x a v -.1.B n m n n n !   ",
"      ).).).).z.z.].x.a.=.B m m m n m n s s x s x s x s s x s r r r 9 > - = ; 3 x x x x x x x x x x x x x x Z 2.=.m n n n m c   ",
"      z.).z.).z.z.z.d.2.C m m m m m m s s s x x s x x x x x s t u u r 2 - = ; 4 u x x x x n x n x x x x x a b -.1.m m m n m c   ",
"    z.z.z.z.z.z.z.x.p.=.m B B m m m v s x x x x x x x x x x s p a s u 3 - = > 3 x x x x n x n x x v x x x x x Z a.R n n n m n   ",
"    e.l.l.z.l.z.z.s.2.C B m m B m m s x x x x x x x v v x v x a s s t 4 ; $ > , x v v n x n x n v v v x x x x b 2.;.n m n n n Q ",
"    #.%.0.e.l.l.x.p.:.m m B m m B v s v x v x v x x v x v v x s s s p 4 ; = ; 4 a x n x n n n x v n v v x v x y n S m n n n m _ ",
"  O.O.X.O.X.@.%.0.S S m m B B m b v v v v v v v v n n n v v v a s s t 4 ; = 2 4 x v v n x n n x n v v v v v x u a Z m n m n n J ",
"   . ...........f 5 m m m B B m b x v v v v v v x n n x n v v a s x u 4 ; = 2 4 a x n n n n n n n v v v v v x p t Z m n n n n H ",
"   . . . . . .} 7 r m B B m B m v v v v v v n n n n n n v v b s s s t 4 ; = 2 4 x n n m n n n n n n v n v v x p e B m n m m n H ",
"   .|  . .}  .! < d B B m B m n x v n n n n n n m n n m n n n s s s t 4 ; = 2 4 x v n n m n m n n n v n v v v p 4 m m n m m n H ",
"| | } } } }  .z < x B m B m B b v n n n n n n m n m n n n m n s s s y 4 ; ; 2 4 x n n n n n n n n n n v n v v a 4 x m n n m n K ",
"/ / ( | } } } q 5 m B B B m B v v n m m m m n n m n m m B n m a s x p 4 ; - 2 4 x m m n n n n n n v v n n v x u 2 s n m m m m H ",
"j j k / ) ^ ^ 7 0 B B B m B m v n n m m B m B m m B B m B B B x s s y 4 ; - 2 4 x n m m m n n n n n n n v v v t > u v m n n m H ",
"/ / w w w k k 6 r B B B m B m v n m m B m B m B B m m C m B m h s s u 4 ; = 2 4 v m n m m m n n n n n n n v v 3 @ 9 x B n n B I ",
"( ( ( / ~ w w 5 a B B B B C n b m m B B B B B B B C m m C m m s s s y 4 ; ; 2 e x m m m m m n B B n n n n n v 1 . : x m n m B _ ",
"o.o.| | ^ ) ! d x B B m B B n n m B B B B B B m B B m C B B B h x s p 4 ; - 2 4 x m m m m m m n B n B n n n x % o 1 v n B n n ' ",
"m.o.o.o.o.| Q x n B B B B m n n m B B C B B B B B B C B C m m s a x u 4 ; = 2 e v B m m m m B m n B n B n n a + + 8 n B n m N   ",
"m.+.o.o.o.o.Q x B B B m B B n b m C B C C C B B C B C B B m B s s s y 2 2 - 2 e n B B B n B B B B B n B n n r o % r m m B m K   ",
"m.m.m.m.O.o...m B B B B m B n n m B C C C m B C C B C B C m C h x s p 4 ; - 2 e n B B B B B B B m B B m n n , o * a B n n m P   ",
"m.m.M.m.m.m...B B B m B B B m b m C B C C C B C B C C B B C m h s s y 4 ; = 2 e n C B B B B B B B B m m B x & % 1 n n B n m '   ",
"B.S.M.M.#.+.X.D B B m B B B n b m m C C C C C C C C B C C C C s s x y e 2 = 2 e n B C B B B B B B B B B n u @ % 9 B B m B V     ",
"  B.B.M.N.m.#.D C B B B B B m v m C B C C C C C C C C C C C C h s x p 4 2 - 2 e b C C C C B B B B B B m n 9 % < x V m m m P     ",
"  V.V.B.B.B.N.F C B m B B B m v m B C A C A A C C C C A C C C h s x p 4 ; - 2 e m C C C B C C C B B B m B 9 1 0 m B m m B '     ",
"  Z.V.V.V.B.N.W S m B B m B m s n B B C C A A C C C A C C C C s s s p 4 ; - 2 e n C C B C C C C C B m B ,.6.y.V m m B m L       ",
"  Z.Z.V.V.V.V.$.S B B B B B B s b B B C C C A A A C A C A A C s s s y 4 2 ; 2 e m A C C C A C C C B m R 2.n.k.B m B m B ]       ",
"    A.Z.Z.Z.V.%.S C B B B B B s s m C C A A A A A A A A A A C h a s t 4 ; = 2 e m A A C C A C C B B A 1.v.b.E B B m m V         ",
"    A.A.Z.Z.Z.C.>.S B B B B B m p n B C A A A A S S A S A A A s a a r > = = ; r B C C A A C C C C B ,.s.XX9.B B B B V ]         ",
"    A.A.A.A.A.Z.5.S B B B B m C s s m C C A S A S S S S A A A s p u u @ X O # - m A A A C A C C L 7.k.oX|.Y V B m B L           ",
"      OXE.E.A.A.0.>.C B B B C C m s v B A A S S S S S S S S Z t - - v C r = o $ m Z A A A C D ] q.}.-X-XL.] V B B V [           ",
"      @XOXOXW.W.P.>.S B B B B C B n s m C C A S S S S S S S A , o + # 4 v =.T S...S A A A T { !.,X5X5XOX&.[ V B B ]             ",
"        $X$X$XOXOXr.=.C B B B B C m h v m C A S S A S S S S A 9 * @ * % * 7 g ^.R.F C A D ] !.2X0X9X4X~.&.Y B B L               ",
"          $X$X$X$X(.<.S B B B B B B m s h m Z Z A S S S S S A A d q i d n m C F F A A B D w.>X7XqX6X;XC.[ D C V %.              ",
"          $X$X$X$X@Xg.:.A B B C C C C n d v m D A A A S S A S S S Z S S S F A A C C m S 3.%X3X7X1X^.T.@.T B B [                 ",
"            &X$X&X$X}.4.=.B B C C B C C C :.S n B C A A A Z A Z S A A A A A C C B C =.4.{.<X,X+XE.J.{ U B B ]                   ",
"              &X$X$X&X/.,.S B B B C B B C S S v v n m C C A A A A A C A C C B A *.4.k.oXoXY.&.$.] Y U C C ]                     ",
"                &X&X&X$Xh.1.S B m C m C B C B B n n s h v n B C B m n b m C B F s.XXXXj.W C C D D C C C ]                       ",
"                  &X&X$X$Xy.,.A C C C B C B C B C C C m x a p r r r 9 9 a G h.c.c.9.E B C B C B C B C [                         ",
"                    &X&X&X%Xy.,.A B C C B C C B C B B A S S S S S S S R R =.8.6.C C B B C C C B B D $.                          ",
"                      &X&X&X@Xy.,.A B C B C C C C C C B B C A C A A A C C C B B C C C C C B C C T &.                            ",
"                          &X&X@Xg.1.S C C C B B B C C C C C C C C C C C C B C C C B C B C B F $.                                ",
"                              &X#Xx.4.;.A B C C B C B C C B B C C B B C C C C C C B C C C 5.e.                                  ",
"                                    /.y.1.=.C C C C C C C C C C C C C C C C C C A C F 5.q.                                      ",
"                                        g.2.1.=.A C C C C C C C C B C C B C C C W 6.w.                                          ",
"                                              2.2.,.;.R S A A A C A Z S G 5.7.q.                                                ",
"                                                    t.2.4.3.8.8.7.7.9.9.h.                                                      "
};
