/* XPM */
static char *f0b9752f460e41ddb47cfc84d2fa3a8d0iOQsBSFobGY1Cce[] = {
/* columns rows colors chars-per-pixel */
"64 64 256 2 ",
"   c #020B01",
".  c #081806",
"X  c #181906",
"o  c #0B1A15",
"O  c #161712",
"+  c #241A10",
"@  c #0C2703",
"#  c #162606",
"$  c #1B3605",
"%  c #182917",
"&  c #1C3518",
"*  c #0B3102",
"=  c #262905",
"-  c #233B02",
";  c #263808",
":  c #333A09",
">  c #262A15",
",  c #362918",
"<  c #283716",
"1  c #363917",
"2  c #34280E",
"3  c #1A302C",
"4  c #272925",
"5  c #283926",
"6  c #373926",
"7  c #273737",
"8  c #363A35",
"9  c #34292D",
"0  c #0E0F2A",
"q  c #463619",
"w  c #463A27",
"e  c #4B392F",
"r  c #1C430C",
"t  c #2A4705",
"y  c #354908",
"u  c #385606",
"i  c #2A4419",
"p  c #354B1C",
"a  c #374718",
"s  c #3A5418",
"d  c #2A5308",
"f  c #3C6305",
"g  c #3D690E",
"h  c #2B4527",
"j  c #374827",
"k  c #3B5527",
"l  c #394737",
"z  c #3C5337",
"x  c #2C4338",
"c  c #3D6224",
"v  c #17443D",
"b  c #445A0A",
"n  c #44481B",
"m  c #47591A",
"M  c #4E4F0F",
"N  c #466805",
"B  c #4B7706",
"V  c #577A08",
"C  c #496618",
"Z  c #556A1A",
"A  c #4A7216",
"S  c #577719",
"D  c #566909",
"F  c #667716",
"G  c #46482A",
"H  c #534727",
"J  c #465828",
"K  c #545A27",
"L  c #464936",
"P  c #564836",
"I  c #485837",
"U  c #565937",
"Y  c #625635",
"T  c #4B6527",
"R  c #556828",
"E  c #5A7529",
"W  c #4B6537",
"Q  c #576738",
"!  c #5B7736",
"~  c #4B7028",
"^  c #647A29",
"/  c #666938",
"(  c #657938",
")  c #6F7233",
"_  c #605F1E",
"`  c #2F374B",
"'  c #1D2748",
"]  c #384947",
"[  c #385150",
"{  c #395069",
"}  c #35635A",
"|  c #474A45",
" . c #485847",
".. c #575A47",
"X. c #495859",
"o. c #505356",
"O. c #6A564B",
"+. c #586845",
"@. c #5A7645",
"#. c #4A6757",
"$. c #576856",
"%. c #5A7656",
"&. c #486E4D",
"*. c #666947",
"=. c #667748",
"-. c #767947",
";. c #656B58",
":. c #697657",
">. c #78795A",
",. c #756850",
"<. c #4B5968",
"1. c #4B6667",
"2. c #586869",
"3. c #5A7569",
"4. c #576879",
"5. c #556D77",
"6. c #676A66",
"7. c #697966",
"8. c #767A66",
"9. c #697476",
"0. c #655963",
"q. c #473F4A",
"w. c #8D6E38",
"e. c #8B744F",
"r. c #85756A",
"t. c #AF7A5A",
"y. c #568705",
"u. c #598419",
"i. c #59930A",
"p. c #679505",
"a. c #658819",
"s. c #6A961B",
"d. c #6E9411",
"f. c #7BB506",
"g. c #73A811",
"h. c #5B872D",
"j. c #678828",
"k. c #738C2B",
"l. c #6B9427",
"z. c #769929",
"x. c #698638",
"c. c #758A38",
"v. c #789637",
"b. c #6B9537",
"n. c #79A429",
"m. c #7BA539",
"M. c #78B22A",
"N. c #5EA100",
"B. c #698646",
"V. c #778748",
"C. c #799747",
"Z. c #6A8657",
"A. c #788857",
"S. c #779557",
"D. c #6D944C",
"F. c #7AA448",
"G. c #7BA84D",
"H. c #5D836E",
"J. c #788768",
"K. c #7B9666",
"L. c #788878",
"P. c #799678",
"I. c #69856F",
"U. c #79A56C",
"Y. c #5D894F",
"T. c #86B517",
"R. c #8AB608",
"E. c #859D3B",
"W. c #858F35",
"Q. c #86A93A",
"!. c #8AB63B",
"~. c #8EB72D",
"^. c #AAB83D",
"/. c #90D00E",
"(. c #93CC30",
"). c #A6DB2C",
"_. c #879948",
"`. c #85895A",
"'. c #869758",
"]. c #918F52",
"[. c #A69755",
"{. c #88A648",
"}. c #94A949",
"|. c #8AB244",
" X c #95B74A",
".X c #87A758",
"XX c #97AB55",
"oX c #99B656",
"OX c #8AB455",
"+X c #A9B458",
"@X c #8B8C69",
"#X c #869867",
"$X c #98956A",
"%X c #848B78",
"&X c #899779",
"*X c #979073",
"=X c #A89272",
"-X c #8AA767",
";X c #97A967",
":X c #98B665",
">X c #96A978",
",X c #99B47A",
"<X c #89A86F",
"1X c #ABB171",
"2X c #CC996E",
"3X c #9AC64F",
"4X c #A7C459",
"5X c #A8D04B",
"6X c #99C46C",
"7X c #A9C766",
"8X c #B1CF74",
"9X c #B8EA56",
"0X c #C4D77B",
"qX c #C3E56E",
"wX c #C2E73F",
"eX c #3C5F8C",
"rX c #536D8B",
"tX c #6E7585",
"yX c #697AA5",
"uX c #4F6A9B",
"iX c #567FE9",
"pX c #807E81",
"aX c #758886",
"sX c #7A8997",
"dX c #708C8C",
"fX c #718FAC",
"gX c #68909E",
"hX c #7298D2",
"jX c #889689",
"kX c #859797",
"lX c #8A918B",
"zX c #A79689",
"xX c #89A785",
"cX c #92A891",
"vX c #A8AD8E",
"bX c #8996AC",
"nX c #92A9AF",
"mX c #ABB4AD",
"MX c #CAAC9D",
"NX c #AECA8F",
"BX c #AFC6B3",
"VX c #9BC6A0",
"CX c #C8C9BB",
"ZX c #D6D590",
"AX c #8A9ACA",
"SX c #94AFD1",
"DX c #A8B5CC",
"FX c #99B7FB",
"GX c #91AFF0",
"HX c #A9BAF6",
"JX c #869DFF",
"KX c #B4C8D1",
"LX c #AFC8F5",
"PX c #97C2E5",
"IX c #C3D4F2",
"UX c #EAD9D6",
/* pixels */
"` # z ` ; - e 4 % > q 0.O.O., e.t.,.: ,.2Xe.H a > e ^.DXhX} r R Q  .b T W I.FXFXPXPXPX} v D.VXAXz h & % < I $ $ 8 b b J m W L.S.",
"0 p h 4 . < % 8 8 6 1 e 0.r.+ $Xe.+ 6 *.e.t.e G 9 w 2XbXFXeXv i N  .W k E xXLXVXPXGXFXfX&.b.,XcX$.& . < p j < j < J V.! @.BXnX} ",
"v [ x 7 ' 8 # 5 9 , w G w e q r.0.9 7 P ,.e.O.X O.w =XkXdXrXyXa m z J 5 b.VXFXG.VXPXFXFXP.D.<XkX#.5 $ J J J J h h x ! W 3.nXnXSX",
"gX{ &.! rXX.6 5 e P 2 G w e P P ` 9.| G e.].=X9 = H ..kXH.[ [ a.:.] b j U.NXGX&.Y.mXGXbXdXdXfXfX[ x h W J s J < & 5.W W sXH.P.LX",
"iXeXY.m.xXH.z W w O.> 2 G P w w 9 9.o.< K e.=XP # M 2.bX1.d f 5X:X3.f Y.nXnXLXgX&.nXnXP.jXfXfXnX<.5 # m s $ a 1 7.tXj Q xX:.J.IX",
"uXfX&.h.|.U.p @.M n 1 X , U , e 8 8 > 1 a M =Xq 8 < SXyX3 W !.9XwXZ.r h.PXhXPXgXhXPXxX<XvXlXlXmX| O @ i J s I J zX| G R Q J W cX",
"iXgX} c l.x.t u.|.- , + w ,.G < 1 > O e H 1 =Xe   o.AX&.h.D.~.!.).OXc h.SXGXGXgXGXfXjX>XxX#X#X>Xj @ $ j @.U Q =.*./ *XA.C T  .7 ",
"rXeXgX} S t d n.3XA > , O.U = 5 X + o.4 4 = w P = <.{ M.(.F.f.n.|.wXG.G.SXGXhXFXSX3.I.bXlX>X>XcX+.. > z +.$ i $X;X+X@X>.^ ! bXKX",
"hX} &.#.m k z V n.f p 6 L ,.,., w q H = 4 O   1 y tX' g ~.m.{.d.v.oX3X5XT.m.rXFXPXgXrXgX$X.X,XnX4.% ; ( - J H ;X_.E.].V.k.'.lXCX",
"hX} #.%.s k +.S S d < e P *.$Xq q Y `.w > 4 6 X n ] 3 Y.(.(.5X(.v.u.s.(.g.3XU.fXGXgXdXcXxX>XjXdX$.@ s Q : J V.V.-.^ =.J.@X@XlXbX",
"hXhX5.h h J E W ~ W z L U Y [.R q / Y >.> L ..*.0.1.3 #.C.T.T.3X XM.3Xn.F.D.G.G.gXyXfXcXjXkXcXP.#XV.^ m n y T b K ( / >.'.U lX%X",
"H.fX1.& h m T z j  ...l >.e.) ) e./ = `.= % > >.mXbXdX1.i S m.F.4XOXG.b.<XF.F.G.5.dXkXK.aXsXnX<X1X1XR J J k s y : ^ Z ^ '.) $X$X",
"} &.{ X.k i k 5 y j L ..*X`.H n `.e.M Y G X X j Q cXI.* s T Q <Xz.C.gXxXY.n.v.h.dXdX&XB.&XbXcXD.C.R - G 1 a I p K E y F '.-.Z ) ",
"c &.} {  .5 5 5 s j L ;.,.H O., e.[._.K K 8 1 , z.XXOXN V C @.Y.j.xXVXH.~ N b.! 6X,X-XV.;XcXxX=.J # # h I a p L :.U y E ;.I b V.",
"J 2. .5 ` [ $ x i 5 | O.H q @XP $X=X[.-.a G X # = S V f k.F b.P.K.xXP.h b.S .XS.'.'.-XS.,X'.K.I.< # j I ( ( a :.T < Z c.L j _ ].",
"m 7 z I { [ t 7 h 5  .G P e.e.e $X$XZX'./ 8 , X 0 b N R m V {.dXjXP.c b.f E V.K.S.( V.=.>XF.S.rX& .  .B.t k.: U s t z. XQ n W.V ",
"[ & #.} h [ eX} l 7 $.*.*.*.U K / ) 1X@X,.U G 2 X k m u B u.c.XX3XNX .h.V W 5.Y.A.A.( V.K.P.cXlX- j +.@ $ a m ! - Z ;XJ p y C m ",
"} &  .[ z x { [ l ;.;.J.*...1 *._ XXvX`.*.*.=.H 1 = y m ^ D k.{.(.<XH.B.^.! aXY.R B.Z.I.P.jX%X( '.J < i ; y V.^ n Z C I L x.m < ",
"] < 6 k ! < ` 5 < ....&X*.>.P w _ V.`.`.Q H M K 1 X 1 a T y V.+X!.S.dXz v.Q L.B.c.! :.9.tXL.=.k._.-.#XK Z XX^ c.`.c.b K i Q : > ",
"8 < < p @.; h 5 > *.U / -.>X@X= / ].V.>.Q / / K : 1 L , < ; ( 1XF.dXAXtXB.=.%.j.( Q Z.P.sXL.@.x.x.V.'.`.-.c.Z ( XXQ.}.Q J K y G ",
"8 4 $ t @.i j x O.mX*.: ( ;X].Z *.r.*.:.*.*.U U : q 1   X # : B.7.nXFXhX$.@.W F ) ^ S.S.P.cXP.J.'.vX-.Q `.'.K '.c.a.oXT m u # X ",
"l 7 # : +.L j ] mXBXQ J E _.-.) ,.8.>.&XJ.J G / / n > O + 6 i B.9.bXFXhX#.J J R A.V.v._..XcXjXlX#XQ 8.+.s `.-.J ( F XX! a m # < ",
"6 > = y ..U n 6.UX8.k @.+.>.@Xe q 8.8.=.Q a m a R = 1 X   # k J.kXkXGXFXaXJ j M ( ( v.{.-XK.L.7.>.:.+.&X#Xm *.U L m C k < s ; L ",
"2 + q _ U U U zXCXU j I H.$.tX` H r.*.U ! s / ( K ; >...X X %.xXBXcXgXSX3.J 6 I J ( E E ! A.#XB.A.-.A.#X#XK W I #.J i ]  .p a 3 ",
"O X i ) 2Xw.=XUX@X] 9.$.J e P *.W.6.o.'.m L W z.Q # ^ :XJ j.m.<X XqXVXxX8.L K a E T ( ( c.S.jXsX#XZ.-.T b R t k I :.] 5 #.I _ _ ",
"` 4 l 6 t.2XUXMXL h 2.rX{ j I  .U @X8.>.%X6 i ( t J ( oXXXF.n.|.l.-X7X<XQ K 6 R Q a ( ! ^ -X:.L.K.=.=.s m E n W l ..z [ h a -.[.",
"fX0 tXq.2X2XUX$.& j 7 <.rXl l 3 5 J.8.9.aXj < 7.t x.Q J.NXC.E u.b.:X!.7X^ _ P Q I 1 U E E D.Z.%.x.T @.: K Q Q =.] ] h Y.h a :.>.",
"fXO { 0.e.UXKX6 = 8 `  .z 0 <.0.7.kXjX%XI > j +.z Z.L.nX<X:.Q ^ E z.j.3X_.U R +.G k a ^ x.x.#X&.( J :.< J p i k X.L.x 3 3. .U jX",
"v > 5 P e.UX| % H j _ XX].:.DXyXdXrXsXK m 6 J.( z T J.mXcX,X=.^ ) N b.C.A.6.n K G m b x.D.Z.&X#.T J K.j W k a k & #.5.4.sX<.$...",
"i # K -.MXMXJ P w ].[.+X0X+XmXDXsXyX4.R ^ +.+.t T Z ! .X7X8XE a.Q ( k.<X%X+...C J a R ( D.&X3.1.p j J.j Q m p J =.I sXrX<.X.7.W ",
"( , M 0XMXzX+XZX-.]._ _ 1X1X;XmX4.rX7 Q ^ J.$.W I K._.Q.z.b.j.U.e =.V .X#X+.6.R L a Z Z A.xX#.#.9.6.cXU ( R T +.Z.K.cX .aX%.5 +.",
"R 9 q !.zXO.^.2X}.M _ _ ].1XvX-XyX1.5 1 j +.aXgX9.tX'.v.! ! Z.5.tX`.v.!.c.%XU I e j : s Z.P.%.&.1. .7.: m C J Q Q I #XT I W < L ",
"* a -.zXY D +X+Xw.) ) M `.1XvXvX[.M j 4  .l <.9.>X:.A.Y R B.Y.Z.A.Q.|.,X~ z.qXA.J.< :.aX7.#X<XfX[ 5.4.I 1 j +.T L Z / >.L > j { ",
"2 a >XlXO.M [.) _.-.*.U $X$X*X%Xe.@X8 J.J.L.1.z <X;.6.o.2.$.%.%.>.E.n.A.;X XW.G - G :.+.E T S.vX1.sXsXL = j  .m D D :.6.7 ] h DX",
"w P vXr.=Xt.[.%X..8.&X>.*X`.*X8.-.;.o.Z.>XmXaX#.Z.L.o.rXtXkXxX7.W S a.t T E.z.m +.2.o.=.B.I S.c.1.bXsX$.<  .I a D S L tX[ rX&.rX",
"9 =Xt.P ,.=X:.0. .7.jX6 1 H 8.*X[.0.7.( Z.lXbX2.H.mX6.tX..%XvX+.j Z v.( E k.{.=.@.;.z ; t J #XC.tXtX9.9.l X.] $ & &.gX<.kX1.Z.cX",
"DXMXt.r.O.-...` 9.3.lX1 1 / e.@X}.%Xj ~ :.<.kXgXfXIXnX8./ K >X$.j C m c.^ C b a b !.a.$ E }.oX;XjX8.6.J.] 4.2.h { <.eX4.<.' cXDX",
"UXmXO.r.2Xt.>.#.9. .%X..*.) U U ) ;.@ # yX| P.DXLXLXbXvX*X*.J.| U Q y R u T =.1 m V F Z vX1Xc.+.=.;.I.&XtXbXfX%.H.} AX] aXAXrXyX",
"UXt.e.w.MXUXZX@X2.9.jX:.*./ 8.$.*.7 p x AX$.G.DXIXDX9.MX>X@X6 . 2 U ! C y @.J.< I p Q >.&X9.$.;.G ..;.&XnXSXsXJ.Y.H.LXbX4.IXsX[ ",
"mX9 t.2Xt.1X2X=X] tXkX;.,.*.jXo.8 7 h KXHXK.qXKXNX&X,.zX=X].n - a *.=.y Q Q l  .k :.Z.E J.$.L m ..0.I I.KXbXX.Y.U.fXLX4.] nXZ.r ",
",.P zXe.e.w.[.1X7.2.8.V.6.pX>.q.` # E mXFXD.(.mX{ 2.J.*.>.&XQ R / 4 G y I Q R o.;.,.m +.rXq...| G ( 2.nXBX6. .A.m.m.VX{ ' sXy.u.",
"r.0.r.,.w.w.[.].< % Q -.6.zX@X6.2.> R kXHX$ s.P.8 J.@X-.*.:.%X#Xa 8 1 y W R C / pX;.J 9.yXX.J 1 ` o.SXPXaXJ.:.v./.g.(.u.~ d h A ",
"vXO.P *X1X[.+Xw.. G '.( e %X:.L. .X jXLXnX. S. .*.'.`.:.;.8.&X-.U `   ; I ( Z a J.V.I eXrX] [ 3 ' ` ` fXxXD.F.n.N.s.g g d T u t ",
"mX| O.,.].[.].0X-.@X;X-.+.lX8.9.L %.KXKX%.W BXcX1X@XjX;.:.,X.Xc.8.8 4 ..j =.-.+.S z.J X.h i  .z y ( d h.U.b.G.u.&.g c * < I d.y.",
"w cX..I Q b _.;XG J / A.&XaXsX9.% I DXKX~ K.nXP.c.:.bXaX{.9X5X7X;X~ T B.s ! I *.m.T.j.Z.s.y.g.M.d.V S A .XG.b.g p N g.u & $ E y.",
"P l ..< $ ^ ( R   # U $.%XlXDX9. .k KXKX~ Y.P.D.j.@.#.@.z.T.(.l.5XT.N.M.g.n.- R G.i.B s d f f f u t * d ,XS.~ s r u T.p.t < a N ",
"BX; a i m A.$XQ h s +. .=.lXDX3.% s 8XvXOXE d a.(.n.g u.!.5X9X7Xg././././.T.m V.b.y.p.u @ < $ o * I t t 7.;.m 7 7.- +.u V p E E ",
"Q X # i @.t @ - l $ p l .   ' l X t a.F.x.z.g.~.M.f.).(.G.C.E v.!./.g.M.f.g.W a i.g /.f.s s d s u.t u R | L.< 9 b y k > s T.m.t ",
"^ K.      p c.E B @ @ & @ u s < - E v.{.C * S s.B l.f B l.x.V.Z g.m.m././.f.n.u.B z.f./.p.t D A i.N.).s.C J.; u b t $ j.V T.n.d ",
"K E C t t E h.Z OX.Xk j ; y s +.T C.S . @ j $ $ i =.i $ - ; y / k.g y.g././.i.m.f.u.B s.t W l.y.y.(.i.N.~.z.C j C R x.C.l.N l.f ",
"c.S v.a.n.n.j.N m G.D.k s $ t S.d u u t @ o   % % I & @ < s y Q ( S z.s.g./.f.s.N s B g.~ ! f B B d g h.g h.( y C Z {.c.g T c d ",
"7X4X4XQ.Q.a.z.n.f A v.u ! d t S j.u.N d @ o  .$ - u ( u A S l.l.m S s.i.f.).9Xg.F.~ y.g.T.A t T t f M.N.M.F.# y Q Z B v.J z K.~ ",
"5X5Xk.u u u f y.v.l.3X|.j.S OX X!.3Xn.l.N C .X_.Q.!.3Xu.u.A l.B t K ( p.f.g.(.(.g.d N p.h.t t r k A g.(.3X6XD.y +.y c.A B.W B.6X",
"5X4Xc.m ( .Xu N s.B t oXz.|.ZXz.s.n.!.a.s.4X7Xb.i.!.j.g g g f A u Q V.V (.s.y.(.f.G.h.S p h k T u ( %.Z.<XG.<XK.J ;XB.g B.T ~ G.",
"+X+X:X_.'.C.b v.u.N u 7XQ.!.9Xb.u.B S u.A f C D.F.6XG.V.s $ t x.s m ^ N  Xm.B g.M.:XD.y.j.! t - y =.B.N g.y.A dXx.NX&XJ k Z.* c ",
"0XXXj.E.k.t m '. Xu T ( }.!.{.Z.N C.t r Y.d i H.OXx.C E b : k.{.r y k.c.h.f g.n.f.u.|.B a.z.g.d.&. .# @ Q ! h.G.V.A.J.&.p $ * ] ",
"+XoXoX7XS S oXl.C.R 8Xx.Q.z.s.E.i.B j.S u E C.^ b x.x..XE y C x._ = V.( B s.a.h.(.y.l.(.N.g.V Z m % % a h.j.E BXU.s c z z h % % ",
"{.4Xm.ZX0XF.b.}.oXj.c.{.Q.v.{.C i.a.!.N - j.b }.! x.V..XZ - u ( m Q Q $ S {.{.s f g.d.S E S N T.$ z V.D Q =.h.vXS.U.W & % & & ] ",
"Q.0XQ.}.oX|.v.c.z.0X{.c.k.c.^ t T.a.V oX|.Q.|.k.B.~ ( >XA.K n 1 Q J j a ^ Z b s s.F Z G j s J a < J qXQ.< l V.v.Z.NX%.& & % o 5 ",
"Q. XC.}.XXj.u b u S k.7Xv.F c..Xa.a.a.!.3XS N u.! C B.#X/ I U I Q *.#X! s x.S R d s.R./.n.i ; y h y 5X7X& o J m k Z.I & #.3 @ % ",
"k.E.}.}.7Xk.t F Z c.C.7X XW.k.Z Z E.j.{.|.j.S f A T S.1X#XA.-.a 1 / $Xm m 6XNX7XY.s.R./.(.k h @ m I E 8X7.5 ; l $ & 5 % l 3 @ 3 ",
"c.{.8Xv.E.oXE.v.^ :X( _.0XoXz.u y Z }.+XD S A E .Xb.h.B.S.'.`.1 H ) ( M ( C F.n.cXb.b.B.r * h 0 ~ @.B.NX>XJ p l i & 5 %   %   o ",
"}.E.}.4XQ.+X+Xd.F oX+Xv.v.7XXX- C.:X^ Q.|.A x.E g B.x.S.S.W Z.s 1 R ^ M ( K v.a.( k.V s < ; $ M D.c D.:XZ.k T x % & 3 &   o o . ",
"}.XXD oX X3XQ.Q.k.z.oXW.c._.a A.j.N +Xz.Q.F ^ t s B.! K.,X@.>XZ.P.W Q V.K >.W.k.N K ..G ; 1 ; / xX@.D.A =.%.! @.& % % % O   o   "
};
