/* XPM */
static char *_379590847184d9cd6ce667154188daf98PYXOyMgZTY6CCn[] = {
/* columns rows colors chars-per-pixel */
"64 64 241 2 ",
"   c None",
".  c #0D0101",
"X  c #170706",
"o  c #2E120E",
"O  c #392938",
"+  c #39221A",
"@  c #451C0C",
"#  c #591601",
"$  c #661B03",
"%  c #6A1D00",
"&  c #641600",
"*  c #761902",
"=  c #7A1816",
"-  c #731214",
";  c #4B230E",
":  c #47230E",
">  c #4D2712",
",  c #542B13",
"<  c #5A2C14",
"1  c #5B3217",
"2  c #54270F",
"3  c #742403",
"4  c #633415",
"5  c #693917",
"6  c #6A3B1B",
"7  c #743C19",
"8  c #6F2511",
"9  c #4E3032",
"0  c #6E332A",
"q  c #611F2C",
"w  c #74411A",
"e  c #7B441C",
"r  c #7F4A1E",
"t  c #724325",
"y  c #73462D",
"u  c #0B1D4D",
"i  c #142356",
"p  c #333357",
"a  c #09266B",
"s  c #0A2B79",
"d  c #183072",
"f  c #283670",
"g  c #3E1F46",
"h  c #4E2450",
"j  c #6D3057",
"k  c #683375",
"l  c #2E407E",
"z  c #616562",
"x  c #861919",
"c  c #8C1A19",
"v  c #861814",
"b  c #941A1A",
"n  c #9C1A1A",
"m  c #981815",
"M  c #911405",
"N  c #A31A1A",
"B  c #AB1A1A",
"V  c #A71917",
"C  c #B21A1A",
"Z  c #BB1B1A",
"A  c #B31615",
"S  c #8D2C0F",
"D  c #891C24",
"F  c #AF1D26",
"G  c #96272D",
"H  c #AA342F",
"J  c #C51A1A",
"K  c #CC1B1B",
"L  c #CC1916",
"P  c #D41B1A",
"I  c #DC1C1B",
"U  c #E31C1B",
"Y  c #EB1D1C",
"T  c #F41D1C",
"R  c #FD1E1D",
"E  c #C5211E",
"W  c #FE211F",
"Q  c #F5211F",
"!  c #EB201E",
"~  c #CC3029",
"^  c #FE2221",
"/  c #EF2D2C",
"(  c #CA1E26",
")  c #85491E",
"_  c #94481E",
"`  c #874A25",
"'  c #875126",
"]  c #985322",
"[  c #885A34",
"{  c #9A4F34",
"}  c #A65A25",
"|  c #B64936",
" . c #AF5135",
".. c #BA652A",
"X. c #B16831",
"o. c #96643A",
"O. c #C6543E",
"+. c #C76C2B",
"@. c #C76F30",
"#. c #94304A",
"$. c #934F45",
"%. c #B55646",
"&. c #97664D",
"*. c #A86849",
"=. c #BB7958",
"-. c #B46D4B",
";. c #8D766C",
":. c #CF5744",
">. c #FD4745",
",. c #D4684D",
"<. c #D66B51",
"1. c #C37B5D",
"2. c #DA785B",
"3. c #CB644D",
"4. c #E27B5B",
"5. c #D87E61",
"6. c #CD7F62",
"7. c #F56F6F",
"8. c #C4BD34",
"9. c #E3DF34",
"0. c #8A8A6E",
"q. c #B1896A",
"w. c #B1A675",
"e. c #DA8867",
"r. c #CF906C",
"t. c #E68D6A",
"y. c #EA936E",
"u. c #E89975",
"i. c #F49D78",
"p. c #ED926F",
"a. c #DDA378",
"s. c #EDA67D",
"d. c #F1AA7E",
"f. c #D88D51",
"g. c #B3CC79",
"h. c #FEFE6B",
"j. c #DADC4C",
"k. c #0A2F83",
"l. c #0B328C",
"z. c #0A3086",
"x. c #0B3595",
"c. c #0C379A",
"v. c #0C389D",
"b. c #103483",
"n. c #2D3B94",
"m. c #0D3BA4",
"M. c #0D3DAC",
"N. c #0D3FB5",
"B. c #113DA2",
"V. c #2C4C8F",
"C. c #0E41B4",
"Z. c #0F43BC",
"A. c #1244B9",
"S. c #1243AF",
"D. c #2751BA",
"F. c #3766B3",
"G. c #557390",
"H. c #677986",
"J. c #4A45A1",
"K. c #0F46C3",
"L. c #0F47C8",
"P. c #1049C6",
"I. c #124CCC",
"U. c #1248C6",
"Y. c #124DD2",
"T. c #134FD9",
"R. c #1351DB",
"E. c #1653D8",
"W. c #0F4FDE",
"Q. c #2B68D0",
"!. c #1555E3",
"~. c #1659E7",
"^. c #2855CA",
"/. c #BC7E83",
"(. c #748998",
"). c #708B96",
"_. c #768DA1",
"`. c #7A94A9",
"'. c #7F9AB3",
"]. c #74A2CD",
"[. c #8E8E86",
"{. c #B5A39B",
"}. c #8499AA",
"|. c #849EB5",
" X c #909DA7",
".X c #8BA6BC",
"XX c #97A7B9",
"oX c #99A7AF",
"OX c #94A586",
"+X c #D99984",
"@X c #FB8F8F",
"#X c #F7AB84",
"$X c #EAB78A",
"%X c #F8B98B",
"&X c #F8BB91",
"*X c #EAA882",
"=X c #CEABAB",
"-X c #F4ADAD",
";X c #D3B08C",
":X c #E5C898",
">X c #FBC798",
",X c #FBD39C",
"<X c #F1CC98",
"1X c #FFFF8E",
"2X c #FCD8A7",
"3X c #F1D2A2",
"4X c #FAE2AB",
"5X c #FDE5B1",
"6X c #FCEBB5",
"7X c #FAEBB7",
"8X c #F5EBB3",
"9X c #D2C0BD",
"0X c #8DA9C3",
"qX c #91AEC4",
"wX c #98B4C8",
"eX c #9ABAD0",
"rX c #A6BBCB",
"tX c #A9BACD",
"yX c #AAC7D9",
"uX c #B8CAD8",
"iX c #BAC1CB",
"pX c #BCD7E6",
"aX c #C4D3DF",
"sX c #CECDCE",
"dX c #F6D8D3",
"fX c #FFFAC6",
"gX c #F2E6CA",
"hX c #C9D9E4",
"jX c #D2DAE6",
"kX c #CCE1ED",
"lX c #D8E5EE",
"zX c #DCECF4",
"xX c #D6E9F3",
"cX c #D0E7F3",
"vX c #E4EDF3",
"bX c #ECF5FA",
"nX c #E8F4FA",
"mX c #F5FAFD",
"MX c #FDFEFF",
"NX c #F2F5F9",
"BX c #EAE6EB",
/* pixels */
"                                                  R R R R R R                                                                   ",
"                                              T T R R R R W W R                                                                 ",
"                                          U Y T T T R R W W W R >.dX                                                            ",
"                                        I Y Y T T R R R W ^ W W / -X@X                                                          ",
"                                      K I Y T T T R R ^ R ^ ^ W R @X@X                                                          ",
"                                    J P U T T T T R R ^ ^ ^ ^ ^ R >.-X@X                                                        ",
"                                  Z L I Y T T T R R R R R W ^ ^ R W 7.-X                                                        ",
"                                  J L I Y T T T R R R ^ ^ ^ W W W T >.=X          R U K                                         ",
"                                Z J P U Y T R R W R W R W ^ ^ ^ Q U U / ^ R R R Y J b c                                         ",
"                              C Z J P U Y T T R R R W ^ W W W T Y T R R R R R P n x x c                                         ",
"                              C Z J P U Y T T R W R W R W W R T T R R R R Y C c D x x                                           ",
"                            C C Z J P U Y T R R W R W W W R Y T R Y A L E x x x c c                                             ",
"                            B C Z J P I Y T T R R W R W ^ Y U T T - X o D = x x c                                               ",
"                          C B B C J P I U Y T W R R T Y ! U Y Y E 0 -.*.` 0 x c                                                 ",
"                          B V B C J K P U U Y T T ! U P ( ( ~ :.2.t.+X+Xt.$.D                                                   ",
"                          B V B C Z J P I I U I P K J Z H 3.5.p.i.i.=XoX{.*X                                                    ",
"                        B B N N B C Z J K K K J Z B m  .2.y.*X&X>X2XdX].G.3X          ,X5XfX                                    ",
"                      N N N n n N B C C Z Z C B S M M S 2.d.,X5XgX7XgX0Xf ;X      &X&X2X7XfXfX                                  ",
"                    N n n N n m b m n n m G G M * 3 3 S S X.s.4X6X6XgXuXl OX:X  #X#X&X2X7XfXfXfX                                ",
"                  B N n N n n b b b c G r.:X:Xq.5 % % 3 3 3 S <X6X8X7XsXG.[.$Xu.p.i.#X>X2X6X6X5X                                ",
"                  B B N n n n b c c G *X7X,X%X>Xq.3 % 3 % # ' <X5X7X3Xz z &.q.6.5.5.p.#X&X>X>X2X                                ",
"                Z C B N n n b b c c *.2X4X<Xd.u.$X*.% % 3 3 1.,X6X7X3X1 . X o > $.=.1.e.+X#X&X&X                                ",
"                  C B N N n b b c c 1.2X8X3Xs.t.u.$X*.3 % 7 a.4X6X6X6Xq.X . X X o y *.1.r.u.*X                                  ",
"                  E C B N n b b c - -.,X4X4X:Xa.e.<X$X1.-.r.,X,X4X4X8X,X;.+ X . X o 0 &.r.u.                                    ",
"                    Z C B N n b v & ` $X2X7X4X:Xa.<X3X&Xd.,X,X,X,X,X,X,Xd.f.6 . . X o +                                         ",
"                    J Z B N n v & % % -.>X5X8X8X8X8X<X%X>Xd.d.>X>X>X>Xd.d.r.q.y + X X o                                         ",
"                        C B b % % % % 8 =.&X2X5X5X>Xy.y.i.i.d.#Xd.d.d.i.u.d.$Xa.r.&.X X                                         ",
"                          F v % % % & & $ { 2.t.e.<.<.4.t.p.p.p.y.y.t.y.y.u.s.;X$X                                              ",
"                              % % & # # # # & - & S :.,.<.4.4.2.4.5.5.5.e.u.s.u.+X                                              ",
"                                1.;.$.8 # # & & * * { :.O.:.3.,.,.3.<.2.e.t.s.$X                bXNXmX                          ",
"                      nXbXbXmXbXzXzXBX9X$.M M M M * S H  .| | | %.:.3.,.<.5.t.*X            jXvXbXmXMXMXMX                      ",
"                  zXnXbXmXMXMXMXmXmXbXnXBX7.R T U L Z D q O O 9 0 { | | :.:.,.      =XBXjXhXlXbXmXNXmXMXMXMXMX                  ",
"              yXpXzXzXnXmXMXMXMXMXMXMXNXbXdX>.^ ^ ^ R Q U C h d z.f j D = = b B J ! =XzXsXhXvXmXbXzXkXnXMXMXMX                  ",
"              wXyXpXpXcXnXbXmXMXMXMXMXMXBXbX7.Q Q Q ^ Q Q R T #.n.Y.Y.J.#.D h G L ! =XaXtXhXbXmXzXeXqXkXmXmXmXmX                ",
"              wXeXyXyXpXkXkXzXbXMXMXMXMXvXlX@X! U U ! ! Y Y Q Q F n.!.~.^.J.U.D.$.O.{.iXiXaXbXMXpX'.'.pXbXmXbXmX                ",
"            rXXXqXwXeXyXpXyXcXzXbXbXNXmXvXaX=X( K ( ( P P I Y T ^ #.A.Q.OXg.}.E.D.0.w.oXoXuXvXmXaXuXuXpXxXzXnXbX                ",
"            rX.XqX.XqXeXeXeXpXcXkXpXkXbXjXtX/.C C C C C C P U Y ! I V.F.j.1Xh.OX!.D.0.0.`.wXpXnXvXiXwXyXrXyXlXzX                ",
"              qXqX'..XeX.XwXeXpXeX|.tXlXjXoX#.N b b c c C P U U ! k I.V.j.1Xh.j.Q.W.V.H.).`.eXpXnXuX`.`.}.XXaXjX                ",
"              wXqX.X.XqX'.qXeXtXtX(.wXkXaX;.D x v = = N J I I ( k ^.E.Z.z 8.9.9.F.W.N.z H.(.`..XyXaX Xz ).}.wXaX                ",
"                  qXqXqX'.0XwXtXuXqXpXjXtX  f g - = c A F F #.n.I.Y.E.I.A.V.z G.I.W.I.G.).(._.`.). XoX0.0.0. X                  ",
"                      wX0X'.|.}.XXuXjXaX    m.c.d p h h l n.A.K.I.Y.E.Y.A.S.m.N.Y.Y.Y.F.(.      (.z -.@.@...*.                  ",
"                          0X|.}.qXtXtX        m.c.c.x.c.N.Z.U.U.I.Y.Y.R.Y.Y.I.Y.I.L.L.L.          X.+.+.+...} _                 ",
"                            tXwXXXXX        m.B.c.c.x.c.N.N.A.U.P.P.I.I.I.Y.Y.Y.Y.Y.Y.Y.        ] X...+.+...] e e               ",
"                                            v.m.c.c.x.v.M.N.A.U.P.P.P.P.I.I.R.!.W.W.~.~.~.  I.p ' } ....} ] _ 7 -.              ",
"                                  < @ @ o u x.B.v.x.c.c.v.C.C.C.A.A.Z.K.Y.W.R.R.~.~.~.~.!.Y.U.p ) ] } } ] ` 7 ` f.              ",
"                                ` 2 @ @ + u x.B.v.x.x.c.v.C.C.C.C.C.Z.Y.T.T.W.R.W.!.~.!.!.T.I.p r ] ] ] S 7 5 X.                ",
"                                0 ; @ @ O u x.B.v.c.x.x.c.m.C.M.S.C.L.I.Y.T.W.W.W.R.!.!.!.E.U.p e ) r e 7 4 e f.                ",
"                                6 ; ; ; i u s B.m.c.c.x.c.x.m.C.M.Z.K.K.K.I.I.Y.T.T.T.T.E.Y.U.n.w e e w 4 < o.                  ",
"                              ' , ; 2 > a u a S.m.v.c.x.x.x.c.m.M.N.N.N.N.K.L.I.I.I.I.Y.Y.I.P.b.w w 5 5 , 6 *.                  ",
"                              y : ; , O s i u z.m.m.v.c.x.x.c.x.c.m.m.M.N.N.N.N.Z.K.P.P.I.P.Z.V.5 w 5 < , '                     ",
"                              1 : , , p z.a a a l.S.m.m.x.c.c.x.x.c.x.c.m.m.m.M.N.N.Z.Z.Z.P.Z.V.w 5 4 2 1 o.                    ",
"                              , > , , i z.s s a a s c.m.S.m.m.m.m.c.c.c.x.x.c.m.m.M.C.Z.C.C.A.f 4 5 < > y                       ",
"                              > ; < , f l.b.z.s s s a s s l.x.x.m.m.m.v.m.v.c.c.v.v.m.m.S.C.C.p 5 4 > , [                       ",
"                            y > 2 1 , d l.z.l.l.z.z.k.s s a a s k.l.v.M.m.m.m.v.m.c.c.c.c.S.v.9 4 , > w                         ",
"                            6 : , 1 1 p x.l.l.l.l.l.l.l.z.k.k.k.z.x.      M.M.M.m.m.m.c.v.v.f 1 < ; , o.                        ",
"                          [ , : , 1 1 O l.x.x.x.x.c.c.x.x.x.l.x.x.              N.M.m.m.v.v.O < , : t                           ",
"                          y > > < 4 5 1 s x.x.v.v.v.v.m.v.v.v.m.                      S.S.d 1 1 > , [                           ",
"                          y : , 1 5 w 5 p x.v.v.m.m.m.m.m.                              S.9 1 , : t                             ",
"                        o.1 ; 1 4 w w w 1 d v.B.                                          t 1 > 1 [                             ",
"                        [ , > 1 5 w e e w O                                                                                     ",
"                        y , , 1 w w r r r                                                                                       ",
"                          , 1 w w e r ' '                                                                                       ",
"                          1 4 w e r ) '                                                                                         ",
"                              w ) ) '                                                                                           "
};
