/* XPM */
static char *_b609e1dea494c5bff29dc071468ae35xkgA6kZfKqdpSydt[] = {
/* columns rows colors chars-per-pixel */
"64 64 220 2 ",
"   c #040501",
".  c #0D0B08",
"X  c #191916",
"o  c #281C05",
"O  c #3B290C",
"+  c #2B2A29",
"@  c #550918",
"#  c #5B3E0D",
"$  c #5A3B07",
"%  c #4A3719",
"&  c #503710",
"*  c #4E3D20",
"=  c #59431C",
"-  c #6B470A",
";  c #744D0A",
":  c #764C04",
">  c #7D540B",
",  c #7B5208",
"<  c #664919",
"1  c #724D18",
"2  c #7B5616",
"3  c #574527",
"4  c #4D473A",
"5  c #5A4C34",
"6  c #5C513C",
"7  c #684C26",
"8  c #6C5223",
"9  c #6A532B",
"0  c #755926",
"q  c #754E3A",
"w  c #67583C",
"e  c #7A5E31",
"r  c #735D37",
"t  c #73603F",
"y  c #585349",
"u  c #585655",
"i  c #504B40",
"p  c #685A43",
"a  c #715650",
"s  c #7A694B",
"d  c #766445",
"f  c #6C6557",
"g  c #766A55",
"h  c #7F715A",
"j  c #6E614D",
"k  c #696866",
"l  c #756E65",
"z  c #7C7261",
"x  c #7F786B",
"c  c #7A7875",
"v  c #B51C38",
"b  c #91293B",
"n  c #D21238",
"m  c #E8103B",
"M  c #8B5B04",
"N  c #865A0C",
"B  c #8C5D0B",
"V  c #845707",
"C  c #915E04",
"Z  c #905F0A",
"A  c #835D19",
"S  c #956205",
"D  c #9C6604",
"F  c #936209",
"G  c #9A6609",
"H  c #9E6A0B",
"J  c #9F6907",
"K  c #8A621B",
"L  c #9C6B16",
"P  c #976916",
"I  c #8E6009",
"U  c #A56B03",
"Y  c #A96E02",
"T  c #A36B0A",
"R  c #AD7104",
"E  c #AE7309",
"W  c #A5710C",
"Q  c #B47503",
"!  c #B97700",
"~  c #B77804",
"^  c #BC7A02",
"/  c #B7780A",
"(  c #A46F13",
")  c #A3731D",
"_  c #AA7617",
"`  c #86592F",
"'  c #896524",
"]  c #936D29",
"[  c #9E7223",
"{  c #896B37",
"}  c #93733C",
"|  c #9A7332",
" . c #986539",
".. c #A87828",
"X. c #A47C36",
"o. c #A76F2B",
"O. c #C27E01",
"+. c #953F46",
"@. c #A23F4B",
"#. c #855B52",
"$. c #826E4C",
"%. c #856C43",
"&. c #9C7C4A",
"*. c #897757",
"=. c #907C5A",
"-. c #87704B",
";. c #A06B59",
":. c #B15D60",
">. c #837A6B",
",. c #8D7D65",
"<. c #887677",
"1. c #8F6C70",
"2. c #B2777C",
"3. c #A87571",
"4. c #B88222",
"5. c #AB823C",
"6. c #B58636",
"7. c #C78201",
"8. c #C98301",
"9. c #9B845D",
"0. c #A68447",
"q. c #A78956",
"w. c #B18E54",
"e. c #9A8664",
"r. c #94856A",
"t. c #8C867C",
"y. c #8C8477",
"u. c #988A74",
"i. c #AB9063",
"p. c #B59662",
"a. c #A5967B",
"s. c #B89E74",
"d. c #CDA35E",
"f. c #C19F67",
"g. c #CBA567",
"h. c #DCB373",
"j. c #D5AD6F",
"k. c #E6BC79",
"l. c #EEC37D",
"z. c #F0C27C",
"x. c #BC7D89",
"c. c #A07E85",
"v. c #898684",
"b. c #958F85",
"n. c #9C9488",
"m. c #9C9995",
"M. c #9C9C9B",
"N. c #959492",
"B. c #A69C8A",
"V. c #A29D94",
"C. c #A39094",
"Z. c #B39188",
"A. c #AEA18B",
"S. c #B7A78C",
"D. c #ADA493",
"F. c #A4A19D",
"G. c #ABA59C",
"H. c #B6AA96",
"J. c #BCB19C",
"K. c #A4A3A3",
"L. c #A8A6A2",
"P. c #ABAAAA",
"I. c #AAA8A6",
"U. c #BAB2A6",
"Y. c #BFB8AD",
"T. c #B3B3B3",
"R. c #BCBCBC",
"E. c #B9B7B3",
"W. c #B0ADA8",
"Q. c #C78794",
"!. c #D58C97",
"~. c #D2B99D",
"^. c #CDAE88",
"/. c #DC90A1",
"(. c #E193A4",
"). c #EB99AA",
"_. c #E897A9",
"`. c #F29DAE",
"'. c #F69FB1",
"]. c #C9BAA1",
"[. c #C6B4B9",
"{. c #D1BFA3",
"}. c #FCA3B5",
"|. c #F9A2B4",
" X c #D5C09C",
".X c #FECE83",
"XX c #F5C881",
"oX c #FFD085",
"OX c #DBCAAD",
"+X c #C5C2BE",
"@X c #CBC0AD",
"#X c #EDD8B7",
"$X c #F3DDBC",
"%X c #F3E0BE",
"&X c #BEBFC0",
"*X c #C4BEC0",
"=X c #CCCAC6",
"-X c #CBCBCB",
";X c #C6C5C5",
":X c #D4D1CC",
">X c #CFD0D2",
",X c #D4D3D3",
"<X c #DBDBDC",
"1X c #D9D9D8",
"2X c #CFCFD0",
"3X c #FEE6C4",
"4X c #FFE9C6",
"5X c #FFEAC8",
"6X c #E2E1DF",
"7X c #DFDFE0",
"8X c #DFE0E1",
"9X c #E3E3E3",
"0X c #EBECEC",
"qX c #E6E7E9",
"wX c #EEEFF0",
"eX c #F3F3F4",
"rX c #F7F7F8",
"tX c #F7F8F9",
"yX c #FFFFFF",
"uX c #FFFFFF",
/* pixels */
"yXyXyXyXyXyXyXyXyXyXyXyXyXyXyXyXyXyXyXyXyXyXyXyXyXyXyXyXyXyXyXyXyXyXyXyXyXyXyXyXyXyXyXyXyXyXyXyXyXyXyXyXyXyXyXyXyXyXyXyXyXyXyXyX",
"yXyXyXyXyXyXyXyXyXyXyXyXyXyXyXyXyXyXyXyXyXyXyXyXyXyXyXyXyXyXyXyXyXyXyXyXyXyXyXyXyXyXyXyXyXyXyXyXyXyXyXyXyXyXyXyXyXyXyXyXyXyXyXyX",
"yXyXyXyXyXyXyXyXyXyXyXyXyXyXyXyXyXyXyXyXyXyXyXyXyXyXyXyXyXyXyXyXyXyXyXyXyXyX9X9XyXyXyXyXyXyXyXyXyXyXyXyXyXyXyXyXyXyXyXyXyXyXyXyX",
"yXyXyXyXyXyXyXyXyXyXyXyXyXyXyXyXyXyXyXyXyXyXyXyXyXyXyXyXyXyXyXyXyXyXyXyXyXyX,XF.yXyXyXyXyXyXyXyXyXyXyXyXyXyXyXyXyXyXyXyXyXyXyXyX",
"yXyXyXyXyXyXyXyXyXyXyXyXyXyXyXyXyXyXyXyXyXyXyXyXyXyXyXyXyXyXyXyXyXyXyXyXyXyX:X>.tXyXyXyXuXuXuXuXyXyXyXyXyXyXyXyXyXyXyXyXyXyXyXyX",
"yXyXyXyXyXyXyXyXyXyXyXyXyXyXyXyXyXyXyXyXyXyXyXyXyXyXyXyXyXyXyXyXuX<XP.M.F.>XE.=.rXuXyXyXuXuXuXuXyXyXyXyXyXyXyXyXyXyXyXyXyXyXyXyX",
"yXyXyXyXyXyXyXyXyXyXyXyXyXyXyXyXyXyXyXyXyXyXyXyXyXyXyXyXyXyXyXwXt.7 > M - 1 9 ,.uXuXyXyXuXyXuXuXyXyXyXyXyXyXyXyXyXyXyXyXyXyXyXyX",
"yXyXyXyXyXyXyXyXyXyXyXyXyXyXyXyXyXyXyXyXyXyXyXyXyXyXyXyXyXyXyXn.I ^ 8.8.V C V 3 ;XyXyXyXyXyXuXyXyXyXyXyXyXyXyXyXyXyXyXyXyXyXyXyX",
"yXyXyXyXyXyXyXyXyXyXyXyXyXyXyXyXyXyXyXyXyXyXyXyXyXyXyXyXuXuXqX] 7.7.7.8.- ; 1 C e.tXyXyXwXtXwXeXyXyXyXyXyXyXyXyXyXyXyXyXyXyXyXyX",
"yXyXyXyXyXyXyXyXyXyXyXyXyXyXyXyXyXyXyXyXyXyXtX0X0XtXyXyXuXuX1X) 8.7.8.Q # - , ^ X.0XyXyXqX2X0X1XyXyXyXyXyXyXyXyXyXyXyXyXyXyXyXyX",
"yXyXyXyXyXyXyXyXyXyXyXyXyXyXyXyXyXyXyXyXyX-Xk 4 4 u v.&XeXuXqXX.7.7.8.V # N G Q [ @XU.u.+XR.7X-XyXyXyXyXyXyXyXyXyXyXyXyXyXyXyXyX",
"yXyXyXyXyXyXyXyXyXyXyXyXyXyXyXyXyXyXyXyX=X' D Y Y C - % u K.0XJ.E 7.Y B T ; N T / / N Q ) n.-X1XyXyXyXyXyXyXyXyXyXyXyXyXyXyXyXyX",
"yXyXyXyXyXyXyXyXyXyXyXyXyXyXyXyXuXuXuXqX0.O.8.8.8.8.8.^ C # p m.H.0.B ~ B G O.7.8.7.F ^ Q 2 n.tXyXyXyXyXyXyXyXyXyXyXyXyXyXyXyXyX",
"yXyXyXyXyXyXyXyXyXyXyXyXyXyXyXyXuXuXuX].O.8.8.O.8.7.8.8.8.8.Y M { ,.( ~ ~ 8.7.8.7.W Q O.' ,.=.0XyXyXyXyXyXyXyXyXyXyXyXyXyXyXyXyX",
"yXyXyXyXyXyXyXyXyXyXyXyXyXyXyXyXuXuXrXp.O.O.O.O.O.O.8.8.O.8.8.8.O.Q E / 8.7.7.7.7.G ~ 8.] qX;XP.yXyXyXyXyXyXyXyXyXyXyXyXyXyXyXyX",
"yXyXyXyXyXyXyXyXyXyXyXyXyXyXyXyXuXuX0XX.O.^ B 1 7 < 1 S O.8.8.8.8.8.8.7.8.8.7.7.7.~ E 8.[ 1XyXK.1XyXyXyXyXyXyXyXyXyXyXyXyXyXyXyX",
"yXyXyXyXyXyXyXyXyXyXyXyXyXyXyXyXyXyX1X) Q e x.!._.(.x.#.7 T O.O.7.8.7.7.7.7.7.7.7.8.O.8.E ].yX1XT.yXyXyXuXuXuXuXuXuXuXuXuXuXuXuX",
"yXyXyXyXyXyXyXyXyXyXyXyXyXyXyXyXyXyX1X[  .(.}.}.}.}.}.}.!.a U O.7.7.7.7.8.7.7.8.7.7.8.7.^ i.tXrXT.uXyXeXP.<XuXuXuXuXuXuXuXuXyXyX",
"yXyXyXyXyXyXyXyXyXyXyXyXyXyXyXyXyXyX<X0 Q.}.}.}.}.}.'.}.'._.#.Y 8.8.8.7.7.7.7.7.8.7.7.7.7...<X=Xc rXyXE.+ c yXyXuXuXuXuXyXyXyXyX",
"yXyXyXyXyXyXyXyXyXyXyXyXyXyXyXyXyXyX0X1.).}.}.}.}.}.}.}.'.}./.` ^ 7.7.7.7.7.8./ ~ 7.8.8.8.^ S.M.X ,XyX-Xk k yXyXuXuXuXuXyXyXyXyX",
"yXyXyXyXyXyXyXyXyXyXyXyXyXyXyXyXyXyXtXC._.}.}.}.}.}.}.}.}.}.}.x.T 8.8.8.7.7.7.7.Q T E O.8.8.6.K.. P.8XN.+ N.yXyXyXyXyXyXyXyXyXyX",
"yXyXyXyXyXyXyXyXyXyXyXyXyXyXyXyXyXyXyXE.x.}.}.}.}.}.}.'.}.}.}.).o.8.7.8.7.7.7.8.7.^ T B G Y T D.+ u G.A.y &XyXyXyXyXyXyXyXyXyXyX",
"yXyXyXyXyXyXyXyXyXyXyXyXyXyXyXyXyXyXyXqX1.).}.}.}.'.}.(.1._.}.).o.8.8.7./ / E Q O.8.8.O.B ; $ p u A.3X3X%XG.eXyXyXyXyXyXyXyXyXyX",
"yXyXyXyXyXyXyXyXyXyXyXyXyXyXyXyXyXyXyXyXL.x.}.}.}.}.}.'.a q 2.;.E 8.7.7.8.O.~ T G S G T Y ^ ~ C h OX3X3X4XD.qXyXyXyXyXyXyXyXyXyX",
"yXyXyXyXyXyXyXyXyXyXyXyXyXyXyXyXyXyXyXyX0X<./.}.}.|.}.}._.#.; R 8.8.7.7.7.7.8.8.8.^ Y T Z Z B , 6 ].#X4X$Xb.eXyXyXyXyXyXyXyXyXyX",
"yXyXyXyXyXyXyXyXyXyXyXyXyXyXyXyXyXyXyXyXyX,Xc._.}.}.|.}.}.`.2.( 8.8.7.7.7.8.7.7.8.O.8.8.8.8.7.D u.4X4X4XS.I.yXyXyXyXyXyXyXyXyXyX",
"yXyXyXyXyXyXyXyXyXyXyXyXyXyXyXyXyXyXyXyXyXyX,Xc.(.}.}.}.}.}./.( 8.8.7.8.8.8.7./ 4.5.( Q O.Q M % {.3X$XS.N.eXyXyXyXyXeXtXyXyXyXyX",
"yXyXyXyXyXyXyXyXyXyXyXyXyXyXyXyXyXyXyXyXyXyXyX<XC.Q.`.}.}.}./.' 8.7.7.7.8.~ } ^.#X%X~.e.% o . . 4 x V.R.rXyXyXyXyX-Xs D.yXrXyXyX",
"yXyXyXyXyXyXyXyXyXyXyXyXyXyXyXyXyXyXyXyXyXyXuXyXeX[.C.Q./._.).q ^ 7.7.7.E i.#X5X4X4X4XOXX     . h t.>X<XqXtXyXyXeX*.Y A.:Xz ,XyX",
"yXyXyXyXyXyXyXyXyXyXyXyXyXyXyXyXyXyXyXyXyXyXuXuXyXyXwX,X[.[.[.t.B 8.7.O.0.%X4X4X3X4X4XS..     4 g 0 8 3 5 f I.wX+X( S g e M V.yX",
"yXyXyXyXyXyXyXyXyXyXyXyXyXyXyXyXyXyXyXyXyXuXuXuXyXyXyXyXtXyXyXqXr ^ 7.^ s.4X4X4X4X4X4X:.@ . X h K 7.7.7.~ U V s } 7.Q G U J M.yX",
"yXyXyXyXuXtXyXyXyXyXyXyXuXtXyXyXyXyXuXuXuXuXuXuXyXyXyXyXuXtXyXyXT.A 7.^ s.4X4X3X4X5X#X#.n @ y } ^ 7.7.7.7.8.8.^ ^ 8.7.7.7.2 2XyX",
"yXyXyXyXyXyXyXyXyXyXyXyXyXyXyXyXyXyXyXuXyXyXyXyXyXyXyXyXyXyXyXyXtXn.H O.0.3X3X3X3X4X].v m b =.E 8.8.8.8.8.8.7.8.8.8.8.O.G V.uXyX",
"yXyXyXyXyXyXyXyXyXyXyXyXyXyXyXyXyXyXyXyXyXyXyXyXyXyXyXyXyXyXyXyXyXeXu.J _  X5X3X3X4XZ.n m +.] Q Q Q ~ ^ ^ ^ ^ ~ ^ 8.O...H.tXyXyX",
"yXyXyXyXyXyXyXyXyXyXyXyXyXyXyXyXyXyXyXyXyXyXyXyXyXyXyXyXyXyXyXyXyXE.w # $ %.#X4X3X4XZ.n n #.S.J.B.y.$.s d $.e.a...8.Q *.0XyXyXyX",
"yXyXyXtXeX0X0XeXtXyXyXyXyXyXyXyXyXyXuXyXyXyXyXyXyXyXyXyXyXyXyXyX;X8 ^ O.F & p  XOX3X^.v :.I.yXyXyXuXtXeX0XeXuXuXS.R ~ A ,XyXyXyX",
"yXuX1XM.c k u u l F.<XyXyXyXyXyXyXyXyXyXyXyXyXyXyXyXyXyXyXyXyXwXj R 8.7.8.Q $ % r S.#X~.B.,XyXyXyXyXuXuXrXqXrXuXeXD.*.G.tXyXyXyX",
"yXwX-X<X0X0X8XR.t.6 3 t.9XyXyXyXyXyXyXyXyXyXyXyXyXyXyXyXyXyXyXm.> 8.7.8.8.8.8.M 3 M.J.J.W.tXyXyXyXyXuX>Xh e B.yXyXyXtXyXyXyXyXyX",
"yXyXyXyXyXyXyXyXyX9XB.3 w R.uXuXyXyXyXyXyXyXyXyXyXyXyXyXyXyX-X7 ^ 8.7.7.7.7.8.8.U 9 c T.tXyXyXyXyXyX7X{ R Q r.yXyXyXyXyXyXyXyXyX",
"yXyXyXyXyXyXyXyXyXyXyX;Xt = F.tXyXyXyXyXyXyXyXyXyXyXyXyXyX0Xf Y 8.8.7.7.8.7.8.8.8.^ V 6 v.;X0XyXyXyXa.R Q ; f ;XyXyXyXyXyXyXyXyX",
"yXyXyXyXyXyXyXyXyXyXyXyX<X$.< m.tXyXyXyXyXyXyXyXuXuXuXuXtXt.I 8.8.7.7.7.8.7.7.8.7.8.8.R , < w b.<X=X) O.~ ~ Y s eXyXyXyXyXyXyXyX",
"yXyXyXyXyXyXyXyXyXyXyXyXyX<Xs 1 F.yXyXyXyXyXyXyXuXuXuXuXF.A 7.7.7.7.^ H ^ 8.7.7.7.7.8.8.8.7.Q S { } O.8.8.O.S = m.yXyXyXyXyXyXyX",
"yXyXyXyXyXyXyXyXyXuXyXyXyXyX<X} 2 E.yXyXyXyXyXyXwX7X-XG.K 7.7.7.7.7.8.E ' H O.8.8.8.8.7.7.7.7.8.O.O.8.8.8.O.~ U w wXyXyXyXyXyXyX",
"yXyXyXyXyXyXyXyXyXyXyXyXyXyXyX-X{ ' ;XyXyXeXT.k 6 0 K B 7.8.7.7.7.7.7.4.h.q.< G ! 8.8.8.7.8.8.7.8.O.8.8.O.L [ ' B.tXyXyXyXyXyXyX",
"uXuXuXuXyXuXuXuXyXyXyXyXtX&Xr.r.y.] { :X>Xu O : R 7.O.7.7.7.7.7.7.7._ j.oXq.K.F.w - V D Q ^ ^ Q R Q O.Y 2 F.<X<XtXyXyXyXyXyXyXyX",
"yXuXuXyXyXyXyXyXyXyXyXeXb.K Q ^ A u...0 + - ^ 8.8.7.8.7.7.7.8.8.O._ d.oXj.t.uXyXwXT.c y 3 5 j r.U.A.d h E.uXyXyXyXyXyXyXyXyXyXyX",
"yXyXyXyXyXyXyXyXyXyXeXB.U 7.8.8.R y.H.O M 8.7.7.8.7.7.7.7.7.8.O.) g..Xz.r.E.P.v.&XuXuXeXqXqXeXuXyXuXwXtXyXyXyXyXyXyXyXyXyXyXyXyX",
"yXyXyXyXyXyXyXyXyXyXU.W 8.7.8.8.^ s f S 8.7.7.7.7.7.7.7.7.7.W | j..XoXi.f r ; : = &XuXuXyXyXyXyXyXyXyXyXyXyXyXyXyXyXyXyXyXyXyXyX",
"yXyXyXyXuXuXuXtX+XV.X.O.O.8.O.8.^ % F 8.7.7.8.7.7.8.7.7.R K w.l.oXoXh.1 H O.8.8.D t.yXyXyXyXyXyXyXuXyXyXuXuXuXyXuXuXyXyXyXyXyXyX",
"yXyXuXuXuXuXuXJ.P U ^ 8.8.O.8.8.D : 7.7.8.7.7.8.7.8.! P &.h..X.X.XoXq.W 8.8.8.7.R >.P.-XyXyXyXyXuXuXuXuXuXyXuXyXuXuXyXyXyXyXuXuX",
"uXyXtXyXuXyXtX*.! 8.8.7.O.G O.O.; E 8.7.7.7.8.8.7.U } g..X.X.X.X.Xh.K ^ 8.7.7.8.Y y -.>.eXyXyXyXuXuXuXuXyXuXuXuXuXtXyXyXuXuXuXuX",
"uXyXyXyXyXyXyXY.} G T 7.Q Z 8.G D 8.8.7.7.7.8.^ P q.l..X.X.X.X.XXX{ R 8.7.7.7.8.K j z.9.M.eXyXyXuXuXuXuXtXuXuXuXuXuXyXyXuXuXuXuX",
"uXyXyXyXyXyXyXyX0X=.Y ~ > U 8./ 7.7.7.7.8.8.^ ' g..X.X.X.XXXoX.X&.B 8.8.7.7.7.Q = *..Xp.$.P.yXyXyXyXuXuXuXuXyXyXyXyXyXyXuXuXuXuX",
"yXyXyXyXyXyXyXyXyX1Xa.B.p Q 8.O.7.7.7.8.8.^ ] h.oXXX.X.X.X.Xz.9.A 7.8.7.7.7.O.G ; w.oXk.g.v.yXyXyXyXyXyXyXuXyXyXyXyXyXyXuXuXuXuX",
"yXyXyXyXyXyXyXyXyXyXyX0Xr O.8.8.7.7.7.7.8.[ j.oX.XXXoX.XoXl.-.B 7.7.Q 7.7.7.7.7.) h.oXoXp.N.yXyXyXyXyXyXyXyXyXyXyXyXyXyXuXuXuXuX",
"yXyXyXyXyXyXyXyXyXyXyX<X8 O.8.7.7.7.7.7.O.| XXoXoX.XoX.Xg.9 - N 1 8 < Q 8.7.7.^ 5.XXoXXXs -XyXyXyXyXyXyXyXyXyXyXyXyXyXyXuXuXuXuX",
"yXyXyXyXyXyXyXyXyXyXyX7X8 O.8.7.8.7.7.8.8.H 0.h.l.l.j.e.f t.I.E.-X<Xx Y 8.7.7._ h..XoXg.c tXyXyXyXyXyXyXyXyXyXyXyXyXyXyXyXyXyXyX",
"yXyXyXyXyXyXyXyXyXyXyXrXf D 8.8.8.8.8.8.7.~ I 9 f m.[.<XtXyXyXyXuXuX>.Y 8.7._ d..XoXk.j 1XyXyXyXyXyXyXyXyXyXyXyXyXyXyXuXyXyXyXyX",
"yXyXyXyXyXyXyXyXyXyXyXyX-X6 V U J D V > 0 h F.=X0XuXyXyXyXyXyXyXuXuXg R ^ ) d..X.Xk.s T.yXyXyXyXyXyXyXyXyXyXyXyXyXyXyXuXyXyXyXyX",
"yXyXyXyXyXyXtXyXyXyXyXyXyX7XM.x l <.N.T.<XtXuXuXuXuXyXyXyXyXyXyXuXtXg T X.k.oXoXh.h T.yXyXyXyXyXyXyXyXyXyXyXyXyXyXyXyXuXyXyXyXyX",
"yXyXyXyXyXyXyXyXyXyXyXyXyXyXyXyXuXuXuXuXyXyXyXyXuXuXuXuXyXyXyXyXyXyXy.] z.oXl.p.>.-XyXyXyXyXyXyXyXyXyXyXyXyXyXyXyXyXyXyXyXyXyXyX",
"yXyXyXyXyXyXyXuXyXyXyXyXyXyXyXyXyXyXuXuXyXyXyXyXuXuXuXuXyXyXyXyXyXyX,Xu.h.s.u.P.0XyXyXyXyXyXyXyXyXyXyXyXyXyXyXyXyXyXyXyXyXyXyXyX",
"yXyXyXyXyXyXyXyXyXyXyXyXyXyXyXyXyXyXyXyXyXyXuXuXuXuXuXuXyXyXyXyXyXyXyX0X6X9XeXyXyXyXyXyXyXyXyXyXyXyXyXyXyXyXyXyXyXuXyXyXuXuXyXyX",
"yXyXyXyXyXyXyXyXyXyXyXyXyXyXyXyXyXyXyXyXyXyXuXuXuXuXuXuXyXyXyXyXyXyXyXyXyXyXyXyXyXyXyXyXyXyXyXyXyXyXyXyXyXyXyXyXyXyXyXtXuXyXyXyX"
};
