/* XPM */
static char *e8c4ffbf5a3b4d21e349b9d8d6fe7777epx0mX28V6V3eawp[] = {
/* columns rows colors chars-per-pixel */
"64 64 205 2 ",
"   c #1E0B00",
".  c #230600",
"X  c #240C00",
"o  c #2A0D02",
"O  c #241103",
"+  c #2C1302",
"@  c #2D1805",
"#  c #2D1408",
"$  c #2D1A0C",
"%  c #321603",
"&  c #361904",
"*  c #3B1D04",
"=  c #33160A",
"-  c #351C0B",
";  c #3A1E0B",
":  c #341E10",
">  c #3B1E10",
",  c #3E2106",
"<  c #3C220D",
"1  c #35200D",
"2  c #362212",
"3  c #3C2413",
"4  c #3E2A14",
"5  c #3D2619",
"6  c #3D291B",
"7  c #3E2C20",
"8  c #411F0B",
"9  c #432204",
"0  c #43240C",
"q  c #43290E",
"w  c #4B2A0D",
"e  c #4A260C",
"r  c #512A0D",
"t  c #432612",
"y  c #4A2713",
"u  c #452A15",
"i  c #4B2C14",
"p  c #442B1A",
"a  c #4B2E1B",
"s  c #522E15",
"d  c #522E1A",
"f  c #4C3015",
"g  c #45301E",
"h  c #4D321C",
"j  c #533216",
"k  c #593416",
"l  c #53341C",
"z  c #59351C",
"x  c #573B1E",
"c  c #5C3A1C",
"v  c #633C1E",
"b  c #422E22",
"n  c #4B2F21",
"m  c #463223",
"M  c #4C3422",
"N  c #4E3925",
"B  c #4B3629",
"V  c #4E3A2C",
"C  c #533622",
"Z  c #543A25",
"A  c #5B3C24",
"S  c #51362A",
"D  c #553B2A",
"F  c #5B3E2B",
"G  c #573E36",
"H  c #5B3F31",
"J  c #623D24",
"K  c #693F26",
"L  c #623E2B",
"P  c #66431E",
"I  c #5D4026",
"U  c #55402E",
"Y  c #5D422C",
"T  c #554233",
"R  c #5C4333",
"E  c #5F4836",
"W  c #5A4738",
"Q  c #5D493A",
"!  c #634225",
"~  c #6B4425",
"^  c #64442C",
"/  c #6A452B",
"(  c #65492E",
")  c #6B4A2E",
"_  c #724529",
"`  c #734B2D",
"'  c #7B4C2D",
"]  c #774627",
"[  c #78522C",
"{  c #634632",
"}  c #6A4632",
"|  c #654A35",
" . c #6B4B33",
".. c #654B3B",
"X. c #6B4E3A",
"o. c #614539",
"O. c #724E33",
"+. c #794D33",
"@. c #724F3A",
"#. c #6E5035",
"$. c #6D523C",
"%. c #745136",
"&. c #7B5335",
"*. c #7F5837",
"=. c #73533B",
"-. c #7B553B",
";. c #76593D",
":. c #7C5A3E",
">. c #644E40",
",. c #6A4E41",
"<. c #665343",
"1. c #6D5443",
"2. c #6E5749",
"3. c #6F5A4A",
"4. c #735642",
"5. c #7A5641",
"6. c #755943",
"7. c #7C5C43",
"8. c #745B4A",
"9. c #7C5E4A",
"0. c #7E6146",
"q. c #76614C",
"w. c #7D624B",
"e. c #7C6352",
"r. c #7F6951",
"t. c #7F6A59",
"y. c #7A6258",
"u. c #804E2B",
"i. c #82522E",
"p. c #825435",
"a. c #845937",
"s. c #83563B",
"d. c #835B3D",
"f. c #8A5D3D",
"g. c #8A5839",
"h. c #905E3D",
"j. c #84613E",
"k. c #8A603E",
"l. c #825D43",
"z. c #895E43",
"x. c #825E4A",
"c. c #846245",
"v. c #8B6345",
"b. c #8B6846",
"n. c #84644B",
"m. c #8A654A",
"M. c #86694C",
"N. c #8C6A4D",
"B. c #936444",
"V. c #926946",
"C. c #91674A",
"Z. c #936B4C",
"A. c #9A6D4D",
"S. c #996444",
"D. c #99734F",
"F. c #846551",
"G. c #896653",
"H. c #856A53",
"J. c #8B6B53",
"K. c #856C5A",
"L. c #8A6D5A",
"P. c #936E52",
"I. c #9A6F52",
"U. c #926E5A",
"Y. c #8E7154",
"T. c #87725F",
"R. c #8D725C",
"E. c #947255",
"W. c #9B7354",
"Q. c #9D7956",
"!. c #93745B",
"~. c #9A765A",
"^. c #96795C",
"/. c #9B7A5D",
"(. c #A27654",
"). c #A17A56",
"_. c #A2775C",
"`. c #A27B5C",
"'. c #A97D5F",
"]. c #846E60",
"[. c #877162",
"{. c #8C7261",
"}. c #927661",
"|. c #997660",
" X c #957A63",
".X c #9B7B63",
"XX c #967A69",
"oX c #9C7E69",
"OX c #A17E64",
"+X c #A97E63",
"@X c #A9825D",
"#X c #9F8064",
"$X c #9E816A",
"%X c #A38165",
"&X c #AA8365",
"*X c #AF8964",
"=X c #A3836B",
"-X c #AA856A",
";X c #AD8A6E",
":X c #A3886D",
">X c #B58C6C",
",X c #AE8B72",
"<X c #A38A76",
"1X c #B28F73",
"2X c #B69176",
/* pixels */
"k ! / } ^ 5.=.l.) +.C.v.C.I.z.z.V.d.-.l.N.%X~.Y.c.U.l.J.OX|.x.x.!.G.G.W.c.f.C.S.A.C.C.s J. X6.W ..Q W W T 3.<.U $.$.9.J Z X.H F ",
"@.@.n.5.{ $.$.^ A / m.!.~.~.E.I./.N.c.b.P.P.;. ./  .s A } C ^ } l a f z s k ~ ` +.l.@.8 < l 4 @ @ O $ 1 2 B g 3 u u y t % 8 t ; ",
"3 p 1 6 6 O O X + u Z l a h C 0 , q f u l l I #.^ l Y C a X.E I C p l Z L L A z d L 4.8.h 4 4 4 7 B B 7 m V T 6 ..Y a M S p n B ",
"$.N U T T <.Q G E 8.w.q.4...e.9.q.M.w.7.!.:X:X$X$X X XR. XK.R.w.K.;.w.$.F.G.G.F.L G.F.9. X}.r.q.t.t.[.q.Q 3.3.8.e.n. XF.7.9.K.e.",
"XX6.X.,.4.K.e.$.1.1.X.} 6. .8.=.7.N.M.%.c.Y.E.N.M.#.:.%.A  .=.5.b.l.E.G.l.@.x.U.A } @.x.,X.X@.F ..I C F | R =.6.5.-.@.^ / @.L 5.",
"R.4.p D >.R ..F F } } C F h F F ^  .;.c.E.^.Y.0.#.;.n.;.H.n.9.x.J.X.^ O.@.@.@.l.J 5.l.@.G.J.@.} H.{ ^ C  .Y { 4.9.7.z.-.5.-.@.F ",
"K.$.F R H ..1.,.F.9.@.{ @.H a H H o...8.q.6.8.X...Y M R D D B G o.X.{ | X.=.x.U.(  .5.5.@.x.5.C (  ...D R D ..6.=.7.n.9.F.} ,.7.",
"=.Y 2 p - = - D H Z d a F D = 3 = = = 2 o X o . = = o o o # o o X M t 0 * y i ^ #.9 & y 8 > a > . + X @ 2 3   o o o = ; > = = > ",
"f Y g 4 3 ; a F y a l C C 1.8.X.1.C X.^ $.K.w.J.L.R.J.K.K.e.9.8.F.e.4.4.=.#.r.H.^.M.M.0.n.J.U.G.w.6.| S Q >.>.>.2.B o.4.G R G D ",
"H.J.w.w.| e.!.U.9.-.!.J..XJ.w.H.n.| =.| 7.J.^.^.OX/.n.E.G.!.=X9.|.=.X.F.c.0.Y.N.:.M.b.M.v.c.x.J.!.R.R.o.t.Q Q 8.y.1.D ..C n G W ",
"#X;.;.:.0.7.5.-.-.` &.s.&.7.I c.c.;./ ) m.m.%.*.d.d.d.;.d.1X=X! :.c.l.b.J.` W.:.m.) ~ j.~ ~ &.&.A A J.Z R H D W 8.F b ..F S D o.",
"b.M.:.=.N.~.P.m.&.d.&.+.v.-.c.c.N.:.J.~.:.d.' d.v.v.d.d.m.~.b.! b.N.N.E.P.^ /.U.P.W.-.b.).k.[ d.;.#.0.p X...2.q.K.C n X.X.D H 8.",
"R.6.4.F.8.L @.x.5.5.C.l.n.!.4.5.%.( J.N.c.:.c.b.b.j.M.&.;.%.! #.%.0.=.0.;.6.| G.G./.P.l.l.&.j.b.N.^.w.h M m V 7 b G V V 6 m W V ",
"D p F F F ; a d d z s s i y t ; h ( Y x I k v ! P ) P x ! A #.I , , & < i ^ 0 y d l s s s j k e w u N U @ X   O 7 T 2 2 : #   : ",
"g U W E 1.X.{ H K L L ^ =.=.4.8.n.9.X.7.;.b.~.P.N.v.j.c.P.U.OXU.R.Y =.n.n.P.~.P.m.~.`.&XW.P.C.E.@XN.^.M.K.e.8.y.K.q.e.XXe.6.q.W ",
"E Q e.| 6.4.6.x.x.x.N.n.R.!. .| $.@.n.!.m.c.z.~.l.d.7.m.Z.x.n.L.^.7.c.=.:.l._ f.B.(.I.(.C.~.z.b./.;.%.0.8.1.w.| F 2.Y ..6.g ..D ",
"E Y { Z ^  .Y $.#.6.7.w.=.w.d 7.{ ^ =.7.E.m.*./.N.*.j.m.m.l.7.l.n.-.:.c.v.W.k.S.g.S.u.' u.A.p.&.N.5.J.;.=.^ | ^ $.4.Z $.$.h U h ",
"U U p | H.n.=.0.w...$.J.8.$.X.=.7.( ;.7.c.J.l./ c.j.%. .l.( n.M.m.%.=.E.P._.Z.B.i.] h.u.] +.@./ E.n.n.;.w.$.| w.8.H.K.K.E = M N ",
"g >.<.3...Z h I $.Y u U Y C % Z Z Z D Y  .6.| ^ Z U Z | 1.M N D a $.^ A ^  ./ c.' ~ +.p.@.-.7.D 1.D Y | S Z M p m 5 p B B 6 B B ",
"7 6 5 2 t h p D u < t 1 % h $.< u h , I I < h l I q h 1 < 3 p 2 Y L.K.w.5.7.:.m.m.f.m./ z A 5...R D t p G D p G B B B m W T W T ",
"y.y.8.F 8..XoXoX^. .;.^.0.c.Y.b.b.Z.b.b.~.Q.W.c./.;X%XE.R.#XX.6.=XR.n.!.=X-X!./.Q.~.;X~.! n.4.X.{ $.$.o.8.{.[.9.8.1...2.3.R R ..",
",...o.| oXU.m.N.E.=.!.M.M.W.E.d.b.d.c.b.W.j.*.b.Q.E.E.E.N.Y.N.^.!.n.c.7.n.oX/.d.d.v.P.P.=.I ^ S h 4.4.i l Y ^ C | D Z Z m E R 5 ",
"C | $.X.:.l.%.:.b.:.b.~.b.b.b.j.:.:.[ b.v.` j.d.N.Q.E.#XY./.!.E.c.E.~././.m.l.:.v.v.-.P.x./ l t C 9.F.@.=.{ F X.4.a ^ o.C l D Z ",
"H | n.5.A n.l.m.7.^ Y.%Xn.c.b.l.m.m.-.%.J.`.) +.N.W.W./.~.^.N.n.:.N.!./.m.c.P.l.O.-.E.E. .8.| Z { n.x.{ X.=. .{ 7.F 4.} { $. .F ",
"M p a X.h I l l l h Y | F C z C M Z t * d y 0  .-.( J / ! x  .J f f f h x l q l l i i i a t p p d C 9.X.C A 0 p H C & ; 3 u ; - ",
"b F Z ..6.M.;.$.;.4.| M C C D F Y S 2.| l X.E.G.-.! %./ ;.Z.m.J.N.(  .^ | Y ^ (  .$.^ ;.K.4.9.1.4.| G.L.L.F.8.F.n.8.Y o.{ X.,.4.",
"U $.$...$.7.M.=.6.$...1.K.e.9.8.F.!.L.L.x.~.m.-.Z.C.A.V.Z.f.z.I.OXN..Xn.M.J.R.n.!./.!.m.!.J.4.H.L.|.7.=. .} } !.9.x.9.F.x.6.X.X.",
"$.E Y #.=.=.w.=.$.X.E Y D D 1.X.o.5.a  .x.P.l.Z.f.Z.v.v.f.&.d.&.W.P.m.n.7.:.7.7.l.m.N.7.%.7.7.=. .O.7.O.J } :.L 7.=.} $.4.7.=.X.",
"6.X.L F  .n.:.^ ;.Y | 6.$.h | 6.4.1.I Y 7.7.m.E.c.c.b.7.-.l.m.N.C.P.=.:.5.7.n.c.:.v.P.Z.l.:.-.:.x.:.-.P.N.l./ -.-.=.=.;.5.9.5.=.",
"| ..$.{ ^ N.7.A $.$.X...3.R R | Y  .w.r.F.n.7.!.n.-.n.5.O.( =.c.-.l.7.n.=.=.7.^ / J.I.N.l.x.m.l.-.d.m.l.O.O.J l ^ ^ / A l C A Z ",
"T 2 > - o ; 3 0 4 4 2 1 1 $ @ 1 < < u ( Y ^ l 0 y q q i C u u < y a & @ < % ; F A * A ^ j J l A Z l z ^ a { ^ C p t p p t n 3 < ",
"T G G ..,.{ o.1.3.3.3.R E 6.6.D R R.!.^.Y.0.J.n.n.5.x.!.=XJ.7.K.!.8.n.e.| 1.7.6.=.n.l.7.m.!.!.!.J./.J.!..X!.9.L.F.9.K.K.y.q.8.q.",
"S o.8.1.4.{ @.| L D ..=.X.5.x.m.-.%X/.OXc.%.U.~.P.E.n.b.1X1Xm.c.:.=.n.m.l.7.-XJ.m.`.-Xv.` W.~.b.v.C.l.d.P.Q.z.+.=.7.,.5.l.,.L X.",
"H H 4.} A L a =.=.@.O.x.5.-.z.p.) c.*.%.:.! ~ :.%.:.m.m.f.`.Z.b.&.-.O.l.=.&.P.A.Z.A.W.v.*.d.f.v.s.v.&.v.b.v.p.5.J.5.=.F.5.x.4.=.",
"L @.x.@.l.x.%.A L O.O.O.x.A.V.d.d.v.` ~ v v ` ~ &.&.d.A.d.d.v.v.l.7.7.l.-.l.&X~.v.P.Z.-.*.v.V.C.Z.z.*.%.p.c.m.+.n.=.D  .L ^ { X.",
"| 4.F L L ^ 5.) A ^ i A %.O.c.D.v d.*.r w +.%.-. .*.l.:.W.A.%.+.7.X.X.n.X.7./.-Xc.m.W.l.-.E.l.n.m.l.:.b.:.m.c z 7.=.i C C C o.F ",
": ; 3 ; u < i Z 7.X.| M < 0 f 0.&.j i =.7.L l d i a i l C A ^ 0 p ; @ + a Z Y C { | / 7.O.C z y z O.L 5.C C o.p D ..p 5 3 > : 2 ",
"B 2.E $.6.R. .K. X}. X XR.^.!.:.J.E.%XP.A J..XoX=XF. .=.n.K.F.L.e.8.e.R.R.n... .=.@.n.F.U.n.G.P.J.G.OXU.U.4.4.G.L.K.XXK.<.t.[.[.",
"R w.4.6.0.7.( 0.n.7.0.0.7.7.l.c.c.E.m./.7.!.!.!.!.oX7.w.n.=.w.M.L.5.w.c.N.J.N.N.&.N.m.O.l.x.l.l.x.l.z.I.z.x.5.m.P.G.n.w.| R.K.F.",
"^ $.6.n.:.;.J ! %.M.;.;.M.c.b.b.m.&.n.n.l.n.!.J.n.!.=./ n.;.:.6.5.7.:.m.n.l.~ -.&.W.C.-.B.f.p.&.~ &.' z.z.l.} x.+.l.O.c.Z n.|.U.",
"Z 7.7.x.m.c.c c.b.c. .%.c.b.c.N.E.m.:.Y.*.0.%.M.0.#.x ;.c.=.c.c.;.0.5.M.%.%.%.&.~ j.b.z.` d.v./ K _ +.g.m.5.J n.l.v :.N.I ;.J.J.",
"L ^ L } O.` w s e z e * * , e w 9 w x I ) 0.#.Y.q.I w x 0.0.;.#.6.$.6.7.#. .;.O.j %.l.m.c.%.-.:.l.J z } @.} l =.-.L / 0.( Y 8.=.",
"{.X.@.@.=.l./ / Y A ^ ( X.#.^ I  .( Y  .I f f t h #.6.h f u 0 h g 4 1 3 h < h Z $.h 0 l I I I h a C C n n 4.H p 8 C * h Y < t h ",
"..5.5.x.m.:.N.E.N.Y.0. X.XJ.Y..Xn.w.H.w.q.w.6.0.H.$X0.c.Y.M.^.Y.H.T.[.R 3.<X X Xw.R.R.^. X X^.^.L.XX[.8.B >.2.e.8.n.R.^.R.L.K.K.",
"A O.! +.z.d.v.d.j.b.;.:.;.c.#.N.7.J.J.=.( ;.7.J.n.~.N.E.V.E.A.b.q.$.0.r.0.0.0.M.N..X~.N.N./.N.M.$.H.$.I > p Z L 0.b.Q.#X;XN.=.J.",
"l.;.d.+.+.f.a.v.j.*.~ :.:.c.:.| =.7. . .I #.0.%.O.P.P.P.l.m.A.d.0.$.$.(  .0.E./.E.Y.E.j.c.^.#X0.n.H.Y h t C } x.0.0.Q.Z.Z.b.l.%.",
"9.=.;.=.d.d.b.:.N.;.;.0.:.M.M.0.C R 4.X...| ^ 6.^ L 7.m.E.~.l.-.%.$.x l ( E.~.E.b.b.b.;.j.M.j.:.( w.4.E E $.;.N.0.P D.@XA.v.b.%.",
"0 & 9 * w 8 0 w f j q , f 4 w u t t y < ; 2 Z C C l ^ } O./ /  .) I $.#.x N.;.M.E.b.N.J.M.W.N.c.;.0.$.Z Y 0.=.) #.w b.).W.&.O.n.",
"{ 6.;.0.%.;.( ) =.6.6.$.l u ( w.7.| 7.x.6.F.6.$.6.6.h < A i i 0 f 3 t Y u < * ; h A l A J ^ @.C I q.0.$.4.^ ^ D 7.X.l Z d t > ; ",
"!.=X.X/./.I.-XOX!.;.G.}.| ;.n.M.m./.~.E.F.M.L.!.!.R.M.#.J.%X/./.$X}.7.F.e.L.F.7. .=.N.J.n.m.U.5.w.M.M.H.L.n.}.!.n.8.F.8.o.1.2.8.",
"P.C.A.b.A.(.'.'.d.z.:.P.` J m.~ +.-.d.-.l.N.-.n.l.7.~.N.U.~.E.P.!.^. .n.J.7.J.J.c.N.~.E.d.Z.+X+.l.P.7./ O.5.=.K  .O.7.G.=.F ..D ",
"z.P.Z.z.A.I.s.I.l.z.~.-X} -.m.m.-.v.v.m.m.P.W.W.P.Z.E.Z.W._._.b.W.N.%.-.c.~.U.N.+.c.m.v.`.v.Z.@.:.N.v.%.` l.l.-.@./  .7...C 4.C ",
"L L ^ -.~ ` / / l.5.=.=.L G.=Xx.b.Z.b.D.Z.Z.).>X'.A.k.V.*X~.Q.E.%XM.) 0.7.c.5./.%.7.b.b.Z._.l.` x.z.l.O.-.x.O.x. .^ 7.4.A Z 8...",
"L / A ) 5.:.( ;.=.0 h h } C  .^ ( ! c P [ p.P k.f.P P [ d.*.j.M.:.;.f #.^ I | Y ^ ( I / d z s / } } @.L 8 s n a ; u M a M t h N ",
"$.X. .;./.%X~.-X!.( 0.K.H.n.7./ ) Y.b.M.b.b.h.[ &.h.*Xb.c 9 w j x 6.#.I $.$.M | 0.|  .j ^ O.J. .d A d L } { } } =.X.p a R h h p ",
"6.7.) 7.m.7.c.n.c.6.) I 0.0.7.;.:.#X1X@XZ.D.(.(.(.).@X@XQ.*.*.#X#X6.H.Y.R.R. XR.!.Y.E.=.@.J.J.m.J.|.@.x.+XoXoX|.J.K.$XoX X}. XK.",
"^ 8.^ / ~.N.l.N.!.( =.5.=.:.J.7.l.n.d.W.C.V.I.(.A.B.A.'.`.P.-.b.;.[ ;.0.;.0.M.( =.:.:.N.;.:./ O.O.c.c.%.v.7.N.-.%.7.@.@.l.O.^ x.",
"u $.F 0 F.=. .;.n.X.w.1.L.5.E.%.:.%X%X&X(.A.Z.A.B.z.W.+XW.m.-.N.Y.0.;.M.Y.;.%.#.b.%.=.c.%.m.:.n.+.N.*.%.~.m.O.l.-.~ ` v K -._ l.",
"p B R 4 a Z { $.l { Y $.| ( A i ) J -.P.&.` z.] &.Z.V.P.2Xx.%.Y.:.M.Y.6.;.7.( I ^ 0.b.;.7.E.m.m.:.0.) ! l.!.N.l.x. ./ -.@.O.5.x.",
"<.W 8.4.| h < ^ | 4.I I A Y =.c.) v l c ) J k ~ ~ k ) ! J ) ( A P f I x h Z Z I X.A I =.x l L z k !  .k J ^ A l y l 0 y y 8 e 8 ",
"R Z Z l l.n.O.!.l.C.P.~.~.b.Z.b.l.E.E.! l.`.G.m.P.:.:.J.J.M.H.H.J.L.L.}.K.K. X=.=. X X^.J.n.m.U.b.b.!.n.5.| A =.6. .1. .L ..| X.",
"$.$.#.( @.l.` *.&.l.l.A.Z.W.D.h.V.c.b.)  .%./ -.:.5.Y.c.l.n.0.7.5.7.4.9.7.4.F.9.w..X.X%X%X.XJ.x.J.!.E./.OX!.^ 6.w.w. .r.=.F !.F.",
"{ X.$.m.z.-.K I.m.s.B.B.A.A.A.h.I.A.C.&.` +.s.-.5.m.;.l./  .l.:.;.&.-.-.-. . .l.~.Q.D.Z.Z.E.~.Z.p.d.C.I.b.~.O./ ( ( ( #.I Y F.7.",
"C { @.7.l.K K s.s._ K ] g.i.h.S.B.C.p.&.&.+.x.z.l.z.@.7.l.:.OX~.d.j.l.-.&.O.O.&.m.Q.*.&.`.b.I.A.f.a.B.A.C.b.) =.%.#.I #.| Y w.0."
};
